<svg width="30" height="30" viewBox="0 0 30 30" fill="none" xmlns="http://www.w3.org/2000/svg">
<path fill-rule="evenodd" clip-rule="evenodd" d="M4.92157 5.17157C3.75 6.34315 3.75 8.22876 3.75 12V18.5C3.75 22.2712 3.75 24.1569 4.92157 25.3284C6.09315 26.5 7.97876 26.5 11.75 26.5H18.25C22.0212 26.5 23.9069 26.5 25.0784 25.3284C26.25 24.1569 26.25 22.2712 26.25 18.5V12C26.25 8.22876 26.25 6.34315 25.0784 5.17157C23.9069 4 22.0212 4 18.25 4H11.75C7.97876 4 6.09315 4 4.92157 5.17157ZM14 8.75V14H8.75V16H14L14 21.25H16L16 16H21.25V14H16V8.75H14Z" fill="white"/>
</svg>
