<svg xmlns="http://www.w3.org/2000/svg" xmlns:xlink="http://www.w3.org/1999/xlink" version="1.1" width="232.62001pt" height="67.23825pt" viewBox="0 0 232.62001 67.23825">
<defs>
<clipPath id="clip_0">
<path d="M0 0H233V68H0Z"/>
</clipPath>
<clipPath id="clip_1">
<path d="M0 0H233V68H0Z"/>
</clipPath>
<clipPath id="clip_2">
<path d="M0 0H233V68H0Z"/>
</clipPath>
<clipPath id="clip_3">
<path d="M0 0H233V68H0Z"/>
</clipPath>
<clipPath id="clip_4">
<path d="M0 0H233V68H0Z"/>
</clipPath>
<clipPath id="clip_5">
<path d="M0 0H233V68H0Z"/>
</clipPath>
<clipPath id="clip_6">
<path d="M0 0H233V68H0Z"/>
</clipPath>
<clipPath id="clip_7">
<path d="M0 0H233V68H0Z"/>
</clipPath>
<clipPath id="clip_8">
<path d="M0 0H233V68H0Z"/>
</clipPath>
<clipPath id="clip_9">
<path d="M0 0H233V68H0Z"/>
</clipPath>
<clipPath id="clip_10">
<path d="M0 0H233V68H0Z"/>
</clipPath>
<clipPath id="clip_11">
<path d="M0 0H233V68H0Z"/>
</clipPath>
<clipPath id="clip_12">
<path d="M0 0H233V68H0Z"/>
</clipPath>
<clipPath id="clip_13">
<path d="M0 0H233V68H0Z"/>
</clipPath>
<clipPath id="clip_14">
<path d="M0 0H233V68H0Z"/>
</clipPath>
<clipPath id="clip_15">
<path d="M0 0H233V68H0Z"/>
</clipPath>
<clipPath id="clip_16">
<path d="M0 0H233V68H0Z"/>
</clipPath>
<clipPath id="clip_17">
<path d="M0 0H233V68H0Z"/>
</clipPath>
<clipPath id="clip_18">
<path d="M0 0H233V68H0Z"/>
</clipPath>
<clipPath id="clip_19">
<path d="M0 0H233V68H0Z"/>
</clipPath>
<clipPath id="clip_20">
<path d="M0 0H233V68H0Z"/>
</clipPath>
<clipPath id="clip_21">
<path d="M0 0H233V68H0Z"/>
</clipPath>
<clipPath id="clip_22">
<path d="M0 0H233V68H0Z"/>
</clipPath>
<clipPath id="clip_23">
<path d="M0 0H233V68H0Z"/>
</clipPath>
<clipPath id="clip_24">
<path d="M0 0H233V68H0Z"/>
</clipPath>
<clipPath id="clip_25">
<path d="M0 0H233V68H0Z"/>
</clipPath>
<clipPath id="clip_26">
<path d="M0 0H233V68H0Z"/>
</clipPath>
<clipPath id="clip_27">
<path d="M0 0H233V68H0Z"/>
</clipPath>
<clipPath id="clip_28">
<path d="M0 0H233V68H0Z"/>
</clipPath>
<clipPath id="clip_29">
<path d="M0 0H233V68H0Z"/>
</clipPath>
<clipPath id="clip_30">
<path d="M0 0H233V68H0Z"/>
</clipPath>
<clipPath id="clip_31">
<path d="M0 0H233V68H0Z"/>
</clipPath>
<clipPath id="clip_32">
<path d="M0 0H233V68H0Z"/>
</clipPath>
<clipPath id="clip_33">
<path d="M0 0H233V68H0Z"/>
</clipPath>
<clipPath id="clip_34">
<path d="M0 0H233V68H0Z"/>
</clipPath>
<clipPath id="clip_35">
<path d="M0 0H233V68H0Z"/>
</clipPath>
<clipPath id="clip_36">
<path d="M0 0H233V68H0Z"/>
</clipPath>
<clipPath id="clip_37">
<path d="M0 0H233V68H0Z"/>
</clipPath>
<clipPath id="clip_38">
<path d="M0 0H233V68H0Z"/>
</clipPath>
<clipPath id="clip_39">
<path d="M0 0H233V68H0Z"/>
</clipPath>
<clipPath id="clip_40">
<path d="M0 0H233V68H0Z"/>
</clipPath>
<clipPath id="clip_41">
<path d="M0 0H233V68H0Z"/>
</clipPath>
<clipPath id="clip_42">
<path d="M0 0H233V68H0Z"/>
</clipPath>
<clipPath id="clip_43">
<path d="M0 0H233V68H0Z"/>
</clipPath>
<clipPath id="clip_44">
<path d="M0 0H233V68H0Z"/>
</clipPath>
<clipPath id="clip_45">
<path d="M0 0H233V68H0Z"/>
</clipPath>
<clipPath id="clip_46">
<path d="M0 0H233V68H0Z"/>
</clipPath>
<clipPath id="clip_47">
<path d="M0 0H233V68H0Z"/>
</clipPath>
<clipPath id="clip_48">
<path d="M0 0H233V68H0Z"/>
</clipPath>
<clipPath id="clip_49">
<path d="M0 0H233V68H0Z"/>
</clipPath>
<clipPath id="clip_50">
<path d="M0 0H233V68H0Z"/>
</clipPath>
<clipPath id="clip_51">
<path d="M0 0H233V68H0Z"/>
</clipPath>
<clipPath id="clip_52">
<path d="M0 0H233V68H0Z"/>
</clipPath>
<clipPath id="clip_53">
<path d="M0 0H233V68H0Z"/>
</clipPath>
<clipPath id="clip_54">
<path d="M0 0H233V68H0Z"/>
</clipPath>
<clipPath id="clip_55">
<path d="M0 0H233V68H0Z"/>
</clipPath>
<clipPath id="clip_56">
<path d="M0 0H233V68H0Z"/>
</clipPath>
<clipPath id="clip_57">
<path d="M0 0H233V68H0Z"/>
</clipPath>
<clipPath id="clip_58">
<path d="M0 0H233V68H0Z"/>
</clipPath>
<clipPath id="clip_59">
<path d="M0 0H233V68H0Z"/>
</clipPath>
<clipPath id="clip_60">
<path d="M0 0H233V68H0Z"/>
</clipPath>
<clipPath id="clip_61">
<path d="M0 0H233V68H0Z"/>
</clipPath>
<clipPath id="clip_62">
<path d="M0 0H233V68H0Z"/>
</clipPath>
<clipPath id="clip_63">
<path d="M0 0H233V68H0Z"/>
</clipPath>
<clipPath id="clip_64">
<path d="M0 0H233V68H0Z"/>
</clipPath>
<clipPath id="clip_65">
<path d="M0 0H233V68H0Z"/>
</clipPath>
<clipPath id="clip_66">
<path d="M0 0H233V68H0Z"/>
</clipPath>
<clipPath id="clip_67">
<path d="M0 0H233V68H0Z"/>
</clipPath>
<clipPath id="clip_68">
<path d="M0 0H233V68H0Z"/>
</clipPath>
<clipPath id="clip_69">
<path d="M0 0H233V68H0Z"/>
</clipPath>
<clipPath id="clip_70">
<path d="M0 0H233V68H0Z"/>
</clipPath>
<clipPath id="clip_71">
<path d="M0 0H233V68H0Z"/>
</clipPath>
<clipPath id="clip_72">
<path d="M0 0H233V68H0Z"/>
</clipPath>
<clipPath id="clip_73">
<path d="M0 0H233V68H0Z"/>
</clipPath>
<clipPath id="clip_74">
<path d="M0 0H233V68H0Z"/>
</clipPath>
<clipPath id="clip_75">
<path d="M0 0H233V68H0Z"/>
</clipPath>
<clipPath id="clip_76">
<path d="M0 0H233V68H0Z"/>
</clipPath>
<clipPath id="clip_77">
<path d="M0 0H233V68H0Z"/>
</clipPath>
<clipPath id="clip_78">
<path d="M0 0H233V68H0Z"/>
</clipPath>
<clipPath id="clip_79">
<path d="M0 0H233V68H0Z"/>
</clipPath>
<clipPath id="clip_80">
<path d="M0 0H233V68H0Z"/>
</clipPath>
<clipPath id="clip_81">
<path d="M0 0H233V68H0Z"/>
</clipPath>
<clipPath id="clip_82">
<path d="M0 0H233V68H0Z"/>
</clipPath>
<clipPath id="clip_83">
<path d="M0 0H233V68H0Z"/>
</clipPath>
<clipPath id="clip_84">
<path d="M0 0H233V68H0Z"/>
</clipPath>
<clipPath id="clip_85">
<path d="M0 0H233V68H0Z"/>
</clipPath>
<clipPath id="clip_86">
<path d="M0 0H233V68H0Z"/>
</clipPath>
<clipPath id="clip_87">
<path d="M0 0H233V68H0Z"/>
</clipPath>
<clipPath id="clip_88">
<path d="M0 0H233V68H0Z"/>
</clipPath>
<clipPath id="clip_89">
<path d="M0 0H233V68H0Z"/>
</clipPath>
<clipPath id="clip_90">
<path d="M0 0H233V68H0Z"/>
</clipPath>
<clipPath id="clip_91">
<path d="M0 0H233V68H0Z"/>
</clipPath>
<clipPath id="clip_92">
<path d="M0 0H233V68H0Z"/>
</clipPath>
<clipPath id="clip_93">
<path d="M0 0H233V68H0Z"/>
</clipPath>
<clipPath id="clip_94">
<path d="M0 0H233V68H0Z"/>
</clipPath>
<clipPath id="clip_95">
<path d="M0 0H233V68H0Z"/>
</clipPath>
<clipPath id="clip_96">
<path d="M0 0H233V68H0Z"/>
</clipPath>
<clipPath id="clip_97">
<path d="M0 0H233V68H0Z"/>
</clipPath>
<clipPath id="clip_98">
<path d="M0 0H233V68H0Z"/>
</clipPath>
<clipPath id="clip_99">
<path d="M0 0H233V68H0Z"/>
</clipPath>
<clipPath id="clip_100">
<path d="M0 0H233V68H0Z"/>
</clipPath>
<clipPath id="clip_101">
<path d="M0 0H233V68H0Z"/>
</clipPath>
<clipPath id="clip_102">
<path d="M0 0H233V68H0Z"/>
</clipPath>
<clipPath id="clip_103">
<path d="M0 0H233V68H0Z"/>
</clipPath>
<clipPath id="clip_104">
<path d="M0 0H233V68H0Z"/>
</clipPath>
<clipPath id="clip_105">
<path d="M0 0H233V68H0Z"/>
</clipPath>
<clipPath id="clip_106">
<path d="M0 0H233V68H0Z"/>
</clipPath>
<clipPath id="clip_107">
<path d="M0 0H233V68H0Z"/>
</clipPath>
<clipPath id="clip_108">
<path d="M0 0H233V68H0Z"/>
</clipPath>
<clipPath id="clip_109">
<path d="M0 0H233V68H0Z"/>
</clipPath>
<clipPath id="clip_110">
<path d="M0 0H233V68H0Z"/>
</clipPath>
<clipPath id="clip_111">
<path d="M0 0H233V68H0Z"/>
</clipPath>
<clipPath id="clip_112">
<path d="M0 0H233V68H0Z"/>
</clipPath>
<clipPath id="clip_113">
<path d="M0 0H233V68H0Z"/>
</clipPath>
<clipPath id="clip_114">
<path d="M0 0H233V68H0Z"/>
</clipPath>
<clipPath id="clip_115">
<path d="M0 0H233V68H0Z"/>
</clipPath>
<clipPath id="clip_116">
<path d="M0 0H233V68H0Z"/>
</clipPath>
<clipPath id="clip_117">
<path d="M0 0H233V68H0Z"/>
</clipPath>
</defs>
<g>
<g clip-path="url(#clip_0)">
<path d="M82.699 44.711H75.035L83.613 21.773H91.746L100.297 44.711H92.621L91.645 41.664H83.711ZM87.059 31.309 85.449 36.191H89.941L88.34 31.309C88.027 30.352 87.805 29.375 87.684 28.359 87.551 29.242 87.34 30.219 87.059 31.309" fill="#ffffff"/>
</g>
<g clip-path="url(#clip_1)">
<path d="M101.277 21.777H108.84V38.094H118.641V44.711H101.277ZM101.277 21.777" fill="#ffffff"/>
</g>
<g clip-path="url(#clip_2)">
<path d="M127.258 44.711H119.594L128.172 21.773H136.301L144.852 44.711H137.18L136.203 41.664H128.27ZM131.617 31.309 130.008 36.191H134.5L132.898 31.309C132.586 30.352 132.363 29.375 132.242 28.359 132.105 29.242 131.895 30.219 131.617 31.309" fill="#ffffff"/>
</g>
<g clip-path="url(#clip_3)">
<path d="M143.008 33.246C143.008 31.207 143.363 29.406 144.074 27.84 144.777 26.27 145.746 25.012 146.957 24.07 148.168 23.133 149.516 22.434 150.984 21.953 152.461 21.488 154.027 21.254 155.688 21.254 158.367 21.254 160.836 21.711 163.086 22.633V29.375C161.453 28.352 159.438 27.84 157.07 27.84 155.23 27.84 153.719 28.285 152.543 29.164 151.363 30.055 150.773 31.41 150.773 33.246 150.773 34.27 150.938 35.145 151.285 35.883 151.617 36.613 152.063 37.16 152.609 37.504 153.152 37.848 153.676 38.105 154.176 38.262 154.676 38.406 155.176 38.484 155.656 38.484 155.922 38.484 156.223 38.465 156.566 38.418V31.898H163.652V43.699C161.051 44.727 158.449 45.234 155.855 45.234 154.145 45.234 152.543 44.988 151.043 44.5 149.527 44.012 148.168 43.277 146.957 42.324 145.746 41.355 144.777 40.098 144.074 38.539 143.363 36.973 143.008 35.215 143.008 33.246" fill="#ffffff"/>
</g>
<g clip-path="url(#clip_4)">
<path d="M168.336 41.848C166.18 39.59 165.09 36.715 165.09 33.25 165.09 29.777 166.18 26.906 168.336 24.648 170.496 22.379 173.555 21.258 177.516 21.258 181.461 21.258 184.52 22.379 186.676 24.648 188.848 26.906 189.93 29.777 189.93 33.25 189.93 36.715 188.848 39.59 186.676 41.848 184.52 44.105 181.461 45.238 177.516 45.238 173.555 45.238 170.496 44.105 168.336 41.848M180.938 37.02C181.754 36.094 182.164 34.836 182.164 33.25 182.164 31.656 181.754 30.398 180.938 29.477 180.117 28.563 178.969 28.094 177.516 28.094 176.047 28.094 174.91 28.563 174.086 29.477 173.266 30.398 172.852 31.656 172.852 33.25 172.852 34.836 173.266 36.094 174.086 37.02 174.91 37.93 176.047 38.387 177.516 38.387 178.969 38.387 180.117 37.93 180.938 37.02" fill="#ffffff"/>
</g>
<g clip-path="url(#clip_5)">
<path d="M195.754 44.711H188.09L196.668 21.773H204.797L213.352 44.711H205.68L204.695 41.664H196.766ZM200.113 31.309 198.5 36.191H202.992L201.391 31.309C201.086 30.352 200.859 29.375 200.738 28.359 200.605 29.242 200.395 30.219 200.113 31.309" fill="#ffffff"/>
</g>
<g clip-path="url(#clip_6)">
<path d="M213.676 28.367C213.676 26.051 214.52 24.281 216.211 23.07 217.902 21.859 220.059 21.258 222.684 21.258 225.93 21.258 228.746 21.891 231.105 23.16V29.711C228.746 28.199 226.211 27.477 223.508 27.508 222.152 27.508 221.473 27.855 221.473 28.531 221.473 28.832 221.684 29.109 222.094 29.367 222.508 29.609 223.039 29.844 223.684 30.035 224.328 30.234 225.043 30.445 225.844 30.68 226.645 30.898 227.445 31.203 228.238 31.582 229.039 31.945 229.758 32.383 230.406 32.879 231.039 33.395 231.57 34.059 231.98 34.918 232.406 35.773 232.605 36.73 232.605 37.801 232.605 42.758 229.402 45.238 222.984 45.238 219.48 45.238 216.445 44.516 213.875 43.07V36.23C216.602 38.02 219.383 38.91 222.23 38.91 223.184 38.91 223.863 38.832 224.242 38.652 224.617 38.477 224.809 38.199 224.809 37.801 224.809 37.453 224.539 37.129 224 36.832 223.453 36.543 222.762 36.285 221.926 36.086 221.105 35.871 220.207 35.574 219.246 35.184 218.277 34.785 217.387 34.336 216.555 33.84 215.73 33.336 215.043 32.602 214.496 31.656 213.953 30.711 213.676 29.609 213.676 28.367" fill="#ffffff"/>
</g>
<g clip-path="url(#clip_7)">
<path d="M85.93 54.043C85.93 53.313 86.063 52.664 86.32 52.078 86.582 51.496 86.941 51.031 87.375 50.676 87.82 50.32 88.309 50.051 88.855 49.859 89.387 49.684 89.953 49.582 90.543 49.582 91.488 49.582 92.355 49.773 93.148 50.152V51.52C92.48 51.086 91.68 50.875 90.746 50.875 89.809 50.875 89.008 51.141 88.352 51.676 87.695 52.211 87.363 52.996 87.363 54.043 87.363 54.633 87.465 55.145 87.664 55.566 87.852 56.004 88.117 56.336 88.453 56.559 88.797 56.789 89.145 56.957 89.523 57.07 89.887 57.168 90.289 57.227 90.703 57.227 91.211 57.227 91.645 57.137 91.992 56.98V53.723H93.359V57.926C92.5 58.305 91.59 58.508 90.621 58.508 90 58.508 89.406 58.414 88.875 58.25 88.332 58.082 87.844 57.824 87.387 57.48 86.941 57.137 86.582 56.668 86.32 56.082 86.063 55.492 85.93 54.813 85.93 54.043" fill="#ffffff"/>
</g>
<g clip-path="url(#clip_8)">
<path d="M107.355 55.703C107.168 55.18 107.066 54.621 107.066 54.043 107.066 53.465 107.168 52.91 107.355 52.387 107.547 51.863 107.824 51.387 108.18 50.973 108.551 50.551 109.023 50.207 109.617 49.961 110.207 49.719 110.859 49.582 111.586 49.582 112.32 49.582 112.977 49.719 113.555 49.961 114.141 50.207 114.621 50.551 114.977 50.973 115.344 51.387 115.621 51.863 115.824 52.387 116.012 52.91 116.102 53.465 116.102 54.043 116.102 54.621 116.012 55.18 115.824 55.703 115.621 56.223 115.344 56.703 114.977 57.125 114.621 57.539 114.141 57.883 113.555 58.129 112.977 58.371 112.32 58.508 111.586 58.508 110.859 58.508 110.207 58.371 109.617 58.129 109.023 57.883 108.551 57.539 108.18 57.125 107.824 56.703 107.547 56.223 107.355 55.703M113.875 56.281C114.41 55.668 114.676 54.926 114.676 54.043 114.676 53.164 114.41 52.422 113.875 51.809 113.34 51.207 112.574 50.898 111.586 50.898 110.605 50.898 109.848 51.207 109.305 51.809 108.762 52.422 108.492 53.164 108.492 54.043 108.492 54.926 108.762 55.668 109.305 56.281 109.848 56.883 110.605 57.191 111.586 57.191 112.574 57.191 113.34 56.883 113.875 56.281" fill="#ffffff"/>
</g>
<g clip-path="url(#clip_9)">
<path d="M133.785 58.344H132.34L128.879 49.746H130.383L133.066 56.719 135.746 49.746H137.246ZM133.785 58.344" fill="#ffffff"/>
</g>
<g clip-path="url(#clip_10)">
<path d="M150.926 49.746H156.844V51.023H152.328V53.371H156.477V54.641H152.328V57.066H156.922V58.344H150.926ZM150.926 49.746" fill="#ffffff"/>
</g>
<g clip-path="url(#clip_11)">
<path d="M172.457 58.344H171.051V49.746H174.488C174.91 49.746 175.313 49.789 175.691 49.875 176.059 49.977 176.414 50.121 176.738 50.32 177.07 50.523 177.328 50.801 177.516 51.156 177.707 51.523 177.793 51.945 177.793 52.434 177.793 53.16 177.605 53.727 177.215 54.137 176.836 54.551 176.324 54.828 175.703 54.98L178.461 58.344H176.781L174.199 55.125H172.457ZM172.457 51.023V53.879H174.555C175.078 53.879 175.516 53.77 175.859 53.547 176.199 53.336 176.367 52.969 176.367 52.457 176.367 51.957 176.199 51.59 175.859 51.355 175.516 51.133 175.078 51.023 174.555 51.023ZM172.457 51.023" fill="#ffffff"/>
</g>
<g clip-path="url(#clip_12)">
<path d="M193.586 58.344H192.184V49.746H193.496L198.125 56.027C198.125 55.84 198.113 55.527 198.113 55.094V49.746H199.516V58.344H198.199L193.574 52.059C193.586 52.246 193.586 52.559 193.586 52.992ZM193.586 58.344" fill="#ffffff"/>
</g>
<g clip-path="url(#clip_13)">
<path d="M213.863 55.703C213.676 55.18 213.574 54.621 213.574 54.043 213.574 53.465 213.676 52.91 213.863 52.387 214.055 51.863 214.332 51.387 214.688 50.973 215.059 50.551 215.535 50.207 216.121 49.961 216.711 49.719 217.367 49.582 218.094 49.582 218.824 49.582 219.484 49.719 220.063 49.961 220.652 50.207 221.129 50.551 221.488 50.973 221.852 51.387 222.129 51.863 222.332 52.387 222.52 52.91 222.609 53.465 222.609 54.043 222.609 54.621 222.52 55.18 222.332 55.703 222.129 56.223 221.852 56.703 221.488 57.125 221.129 57.539 220.652 57.883 220.063 58.129 219.484 58.371 218.824 58.508 218.094 58.508 217.367 58.508 216.711 58.371 216.121 58.129 215.535 57.883 215.059 57.539 214.688 57.125 214.332 56.703 214.055 56.223 213.863 55.703M220.383 56.281C220.918 55.668 221.184 54.926 221.184 54.043 221.184 53.164 220.918 52.422 220.383 51.809 219.852 51.207 219.082 50.898 218.094 50.898 217.113 50.898 216.355 51.207 215.813 51.809 215.27 52.422 215 53.164 215 54.043 215 54.926 215.27 55.668 215.813 56.281 216.355 56.883 217.113 57.191 218.094 57.191 219.082 57.191 219.852 56.883 220.383 56.281" fill="#ffffff"/>
</g>
<g clip-path="url(#clip_14)">
<path d="M27.051 35.523 27.539 34.781H22.211L22.699 35.523ZM27.051 35.523" fill="#ffffff"/>
</g>
<g clip-path="url(#clip_15)">
<path d="M21.961 31.977V34.188H27.777V31.977H27.086V32.965C27.086 33.121 26.957 33.254 26.785 33.254H25.508C25.352 33.254 25.219 33.121 25.219 32.965V31.977H24.516V32.965C24.516 33.121 24.398 33.254 24.23 33.254H22.949C22.781 33.254 22.652 33.121 22.652 32.965V31.977ZM21.961 31.977" fill="#ffffff"/>
</g>
<g clip-path="url(#clip_16)">
<path d="M40.199 16.496C40.27 16.371 40.156 16.238 40.023 16.27L38.02 17.273C38.043 17.316 38.063 17.348 38.078 17.398L38.098 17.383 38.688 17.086C38.711 17.07 38.742 17.086 38.754 17.109 38.777 17.137 38.766 17.172 38.734 17.188L38.133 17.484 38.121 17.496C38.133 17.527 38.133 17.551 38.145 17.586L38.742 17.285C38.766 17.262 38.801 17.273 38.82 17.305 38.836 17.328 38.82 17.363 38.785 17.383L38.152 17.695C38.152 17.727 38.168 17.75 38.168 17.773 38.168 17.773 38.152 17.785 38.152 17.797L38.785 18.117C38.82 18.129 38.836 18.164 38.82 18.188 38.813 18.207 38.801 18.219 38.777 18.219H38.742L38.145 17.918C38.145 17.941 38.133 17.973 38.133 18.008L38.734 18.309C38.766 18.328 38.777 18.363 38.754 18.387 38.754 18.398 38.742 18.41 38.723 18.418 38.711 18.418 38.699 18.418 38.688 18.41L38.098 18.105C38.078 18.164 38.055 18.207 38.02 18.266L40.023 19.262C40.156 19.297 40.258 19.164 40.199 19.043L39.621 17.887C39.578 17.805 39.578 17.719 39.621 17.629ZM40.199 16.496" fill="#ffffff"/>
</g>
<g clip-path="url(#clip_17)">
<path d="M36.348 16.926C36.461 16.957 36.559 16.98 36.66 17.023 36.707 16.891 36.684 16.746 36.594 16.621 36.574 16.602 36.551 16.57 36.527 16.527 36.297 16.191 36.297 15.879 36.297 15.879L35.227 16.715C35.293 16.723 35.359 16.738 35.438 16.746H35.445L36.027 16.27C36.051 16.246 36.086 16.258 36.105 16.281 36.129 16.301 36.129 16.336 36.094 16.359L35.594 16.77C35.629 16.781 35.672 16.781 35.707 16.789L36.129 16.445C36.148 16.422 36.184 16.438 36.203 16.457 36.227 16.48 36.219 16.512 36.195 16.535L35.848 16.813C35.895 16.824 35.926 16.824 35.973 16.836L36.219 16.621C36.25 16.613 36.281 16.613 36.297 16.637 36.316 16.656 36.316 16.691 36.297 16.715L36.105 16.867C36.137 16.867 36.184 16.883 36.219 16.891L36.328 16.801C36.348 16.781 36.383 16.781 36.406 16.801 36.43 16.836 36.418 16.867 36.395 16.891ZM36.348 16.926" fill="#ffffff"/>
</g>
<g clip-path="url(#clip_18)">
<path d="M34.098 16.625C34.109 16.535 34.121 16.457 34.121 16.402 34.031 15.813 33.711 15.656 33.711 15.656L33.035 16.625H33.211L33.59 16.066C33.598 16.035 33.645 16.035 33.668 16.043 33.688 16.066 33.699 16.102 33.676 16.125L33.344 16.613H33.457L33.734 16.211C33.742 16.18 33.785 16.18 33.809 16.191 33.836 16.211 33.844 16.246 33.82 16.27L33.59 16.613H33.699L33.879 16.359C33.887 16.324 33.934 16.324 33.953 16.336 33.977 16.359 33.988 16.391 33.969 16.414L33.836 16.613C33.922 16.625 34.012 16.625 34.098 16.625" fill="#ffffff"/>
</g>
<g clip-path="url(#clip_19)">
<path d="M35.43 18.906C35.34 18.926 35.273 18.938 35.238 18.949L36.254 19.75C36.254 19.75 36.262 19.438 36.484 19.094 36.508 19.059 36.531 19.027 36.551 19.004 36.664 18.859 36.676 18.68 36.586 18.551 36.484 18.582 36.375 18.625 36.254 18.66L36.352 18.746C36.387 18.77 36.387 18.805 36.363 18.828 36.34 18.848 36.305 18.859 36.285 18.836L36.129 18.703C36.094 18.715 36.063 18.727 36.027 18.738L36.254 18.914C36.273 18.926 36.273 18.973 36.262 18.992 36.238 19.016 36.211 19.016 36.188 18.992L35.906 18.77C35.875 18.785 35.832 18.793 35.797 18.805L36.152 19.094C36.172 19.117 36.188 19.148 36.164 19.172 36.141 19.191 36.109 19.191 36.086 19.184L35.672 18.836C35.629 18.848 35.598 18.859 35.563 18.871L36.063 19.273C36.086 19.293 36.086 19.328 36.063 19.352 36.051 19.371 36.008 19.383 35.984 19.359ZM35.43 18.906" fill="#ffffff"/>
</g>
<g clip-path="url(#clip_20)">
<path d="M33.258 19.965 32.867 19.32V19.309H32.656L33.281 20.301C33.281 20.301 33.469 20.199 33.648 20.031 33.691 20 33.727 19.957 33.746 19.922 33.836 19.789 33.836 19.609 33.746 19.477L33.613 19.266C33.559 19.266 33.5 19.273 33.445 19.273L33.66 19.629C33.668 19.664 33.668 19.699 33.633 19.711 33.613 19.73 33.582 19.719 33.559 19.688L33.313 19.285C33.281 19.285 33.246 19.285 33.223 19.297L33.5 19.777C33.523 19.797 33.516 19.832 33.492 19.844 33.457 19.863 33.422 19.855 33.414 19.832L33.094 19.297H32.992L33.355 19.91C33.371 19.934 33.355 19.965 33.336 19.988 33.305 20 33.27 19.988 33.258 19.965" fill="#ffffff"/>
</g>
<g clip-path="url(#clip_21)">
<path d="M29.461 17.715C29.379 17.715 29.328 17.77 29.328 17.848 29.328 17.914 29.379 17.984 29.461 17.984 29.539 17.984 29.594 17.914 29.594 17.848 29.594 17.77 29.539 17.715 29.461 17.715" fill="#ffffff"/>
</g>
<g clip-path="url(#clip_22)">
<path d="M36.66 18.355C36.668 18.355 36.68 18.344 36.691 18.344H36.727C36.969 18.277 37.234 18.246 37.523 18.246 37.637 18.246 37.746 18.246 37.848 18.254 37.938 18.098 37.98 17.934 37.98 17.766V17.754C37.98 17.59 37.938 17.43 37.848 17.266 37.746 17.277 37.637 17.285 37.523 17.285 37.234 17.285 36.969 17.254 36.727 17.188H36.691C36.668 17.176 36.66 17.176 36.648 17.168 36.59 17.156 36.547 17.133 36.492 17.121 35.766 16.898 34.668 16.766 33.52 16.766 31.383 16.766 28.469 17.43 28.469 17.957 28.469 17.957 28.469 18.055 28.539 18.156 28.551 18.18 28.57 18.199 28.594 18.223 28.695 18.211 28.793 18.18 28.883 18.133 28.891 18.133 28.891 18.133 28.906 18.121 28.949 18.109 28.996 18.121 29.016 18.168 29.039 18.211 29.016 18.254 28.973 18.277 28.973 18.277 28.961 18.289 28.949 18.289 28.891 18.313 28.828 18.344 28.762 18.355 28.762 18.355 28.75 18.355 28.75 18.367 28.77 18.379 28.785 18.391 28.805 18.398 29.137 18.625 29.707 18.82 30.484 18.957 30.684 18.746 30.809 18.457 30.809 18.133V18.109C30.809 18.066 30.84 18.02 30.887 18.02 30.93 18.02 30.973 18.066 30.973 18.109V18.133C30.973 18.457 30.863 18.754 30.684 18.988 31.297 19.09 32.043 19.148 32.91 19.148 33.965 19.148 35.598 18.746 36.324 18.477 36.422 18.434 36.535 18.391 36.66 18.355M29.516 18.156C29.371 18.156 29.262 18.043 29.262 17.898 29.262 17.754 29.371 17.633 29.516 17.633 29.664 17.633 29.781 17.754 29.781 17.898 29.781 18.043 29.664 18.156 29.516 18.156M31.266 17.578C31.273 17.578 31.273 17.566 31.285 17.566L31.363 17.543H31.375L31.996 17.367C32.031 17.355 32.066 17.367 32.074 17.398 32.074 17.43 32.066 17.453 32.031 17.465L31.383 17.656 31.34 17.664C31.316 17.633 31.297 17.598 31.266 17.578M32.086 17.598C32.098 17.633 32.074 17.664 32.051 17.664L31.418 17.855C31.406 17.824 31.398 17.777 31.383 17.742L32.016 17.566C32.051 17.555 32.074 17.578 32.086 17.598M32.152 18.512H31.984C31.93 18.512 31.875 18.457 31.875 18.391 31.875 18.332 31.93 18.277 31.984 18.277H32.152C32.219 18.277 32.262 18.332 32.262 18.391 32.262 18.457 32.219 18.512 32.152 18.512M32.719 18.723H32.555C32.488 18.723 32.441 18.676 32.441 18.609 32.441 18.555 32.488 18.5 32.555 18.5H32.719C32.773 18.5 32.832 18.555 32.832 18.609 32.832 18.676 32.773 18.723 32.719 18.723M32.719 18.289H32.555C32.488 18.289 32.441 18.234 32.441 18.18 32.441 18.109 32.488 18.055 32.555 18.055H32.719C32.773 18.055 32.832 18.109 32.832 18.18 32.832 18.234 32.773 18.289 32.719 18.289M32.051 18.035C31.965 18.121 31.84 18.18 31.719 18.18 31.652 18.18 31.594 18.168 31.527 18.133L31.398 18.078C31.363 18.066 31.352 18.035 31.363 18 31.375 17.969 31.418 17.945 31.441 17.969L31.586 18.02C31.719 18.078 31.863 18.043 31.965 17.945 32.195 17.699 32.574 17.309 32.816 17.051L31.207 17.496C31.172 17.512 31.141 17.488 31.129 17.453 31.117 17.422 31.141 17.387 31.172 17.379L32.984 16.875C33.02 16.863 33.043 16.875 33.063 16.898 33.078 16.922 33.078 16.957 33.055 16.977 32.852 17.199 32.344 17.734 32.051 18.035M33.289 18.512H33.121C33.063 18.512 33.008 18.457 33.008 18.391 33.008 18.332 33.063 18.277 33.121 18.277H33.289C33.355 18.277 33.398 18.332 33.398 18.391 33.398 18.457 33.355 18.512 33.289 18.512M33.289 18.066H33.121C33.063 18.066 33.008 18.02 33.008 17.957 33.008 17.887 33.063 17.844 33.121 17.844H33.289C33.355 17.844 33.398 17.887 33.398 17.957 33.398 18.02 33.355 18.066 33.289 18.066M33.855 18.723H33.688C33.633 18.723 33.578 18.676 33.578 18.609 33.578 18.555 33.633 18.5 33.688 18.5H33.855C33.922 18.5 33.965 18.555 33.965 18.609 33.965 18.676 33.922 18.723 33.855 18.723M33.855 18.289H33.688C33.633 18.289 33.578 18.234 33.578 18.18 33.578 18.109 33.633 18.055 33.688 18.055H33.855C33.922 18.055 33.965 18.109 33.965 18.18 33.965 18.234 33.922 18.289 33.855 18.289M33.855 17.844H33.688C33.633 17.844 33.578 17.801 33.578 17.734 33.578 17.664 33.633 17.621 33.688 17.621H33.855C33.922 17.621 33.965 17.664 33.965 17.734 33.965 17.801 33.922 17.844 33.855 17.844M34.434 18.512H34.266C34.199 18.512 34.156 18.457 34.156 18.391 34.156 18.332 34.199 18.277 34.266 18.277H34.434C34.488 18.277 34.543 18.332 34.543 18.391 34.543 18.457 34.488 18.512 34.434 18.512M34.434 18.066H34.266C34.199 18.066 34.156 18.02 34.156 17.957 34.156 17.887 34.199 17.844 34.266 17.844H34.434C34.488 17.844 34.543 17.887 34.543 17.957 34.543 18.02 34.488 18.066 34.434 18.066M35 18.289H34.836C34.766 18.289 34.723 18.234 34.723 18.18 34.723 18.109 34.766 18.055 34.836 18.055H35C35.066 18.055 35.109 18.109 35.109 18.18 35.109 18.234 35.066 18.289 35 18.289M35 17.844H34.836C34.766 17.844 34.723 17.801 34.723 17.734 34.723 17.664 34.766 17.621 34.836 17.621H35C35.066 17.621 35.109 17.664 35.109 17.734 35.109 17.801 35.066 17.844 35 17.844M35.566 18.066H35.402C35.344 18.066 35.293 18.02 35.293 17.957 35.293 17.887 35.344 17.844 35.402 17.844H35.566C35.637 17.844 35.68 17.887 35.68 17.957 35.68 18.02 35.637 18.066 35.566 18.066" fill="#ffffff"/>
</g>
<g clip-path="url(#clip_23)">
<path d="M48.168 20.445C48.227 20.324 48.125 20.188 47.992 20.223L45.988 21.223C46.012 21.27 46.035 21.301 46.043 21.336H46.066L46.656 21.035C46.676 21.023 46.711 21.035 46.727 21.059 46.746 21.09 46.734 21.125 46.703 21.133L46.102 21.434 46.09 21.445C46.102 21.48 46.102 21.504 46.113 21.535L46.711 21.234C46.734 21.211 46.77 21.223 46.789 21.258 46.801 21.277 46.789 21.313 46.758 21.336L46.121 21.645C46.121 21.668 46.137 21.699 46.137 21.723 46.137 21.723 46.121 21.734 46.121 21.746L46.758 22.07C46.789 22.078 46.801 22.113 46.789 22.137 46.777 22.156 46.77 22.168 46.746 22.168H46.711L46.113 21.867C46.113 21.891 46.113 21.926 46.102 21.957L46.703 22.258C46.734 22.281 46.746 22.313 46.727 22.336 46.727 22.348 46.711 22.355 46.691 22.367 46.676 22.367 46.668 22.367 46.656 22.355L46.066 22.059C46.043 22.113 46.023 22.156 45.988 22.215L47.992 23.215C48.125 23.25 48.227 23.113 48.168 22.992L47.594 21.836C47.547 21.758 47.547 21.668 47.594 21.578ZM48.168 20.445" fill="#ffffff"/>
</g>
<g clip-path="url(#clip_24)">
<path d="M44.32 20.887C44.43 20.918 44.531 20.941 44.633 20.988 44.676 20.852 44.652 20.707 44.566 20.586 44.539 20.566 44.516 20.531 44.496 20.484 44.262 20.152 44.262 19.84 44.262 19.84L43.195 20.676C43.262 20.684 43.328 20.695 43.406 20.707H43.418L43.996 20.23C44.02 20.207 44.051 20.215 44.074 20.238 44.094 20.262 44.094 20.297 44.063 20.32L43.563 20.73C43.598 20.742 43.641 20.742 43.672 20.754L44.094 20.406C44.117 20.383 44.152 20.398 44.176 20.418 44.195 20.441 44.188 20.473 44.164 20.496L43.816 20.777C43.863 20.785 43.895 20.785 43.941 20.797L44.188 20.586C44.219 20.574 44.25 20.574 44.262 20.594 44.285 20.617 44.285 20.652 44.262 20.676L44.074 20.828C44.109 20.828 44.152 20.844 44.188 20.852L44.297 20.762C44.32 20.742 44.352 20.742 44.375 20.762 44.398 20.797 44.387 20.828 44.363 20.852ZM44.32 20.887" fill="#ffffff"/>
</g>
<g clip-path="url(#clip_25)">
<path d="M42.07 20.586C42.078 20.496 42.09 20.418 42.09 20.363 42 19.773 41.676 19.617 41.676 19.617L41 20.586H41.176L41.555 20.031C41.566 19.996 41.613 19.996 41.633 20.008 41.656 20.031 41.668 20.063 41.645 20.082L41.313 20.586C41.355 20.574 41.387 20.574 41.422 20.574L41.699 20.172C41.711 20.141 41.758 20.141 41.777 20.152 41.801 20.172 41.809 20.207 41.789 20.23L41.555 20.574H41.668L41.844 20.316C41.859 20.285 41.902 20.285 41.922 20.297 41.945 20.316 41.953 20.352 41.934 20.375L41.801 20.574C41.891 20.586 41.977 20.586 42.07 20.586" fill="#ffffff"/>
</g>
<g clip-path="url(#clip_26)">
<path d="M43.398 22.867C43.313 22.887 43.246 22.895 43.211 22.91L44.223 23.711C44.223 23.711 44.234 23.398 44.457 23.055 44.48 23.02 44.504 22.988 44.523 22.965 44.637 22.82 44.648 22.641 44.559 22.508 44.457 22.539 44.348 22.586 44.223 22.617L44.324 22.707C44.359 22.73 44.359 22.766 44.336 22.785 44.313 22.809 44.277 22.82 44.258 22.797L44.102 22.664C44.066 22.676 44.035 22.684 44 22.699L44.223 22.875C44.246 22.887 44.246 22.93 44.234 22.953 44.215 22.977 44.18 22.977 44.156 22.953L43.879 22.73C43.848 22.742 43.801 22.754 43.77 22.766L44.125 23.055C44.145 23.078 44.156 23.109 44.133 23.129 44.113 23.156 44.082 23.156 44.059 23.141L43.637 22.797C43.602 22.809 43.566 22.82 43.535 22.828L44.035 23.23C44.059 23.254 44.059 23.289 44.035 23.309 44.023 23.332 43.98 23.34 43.957 23.32ZM43.398 22.867" fill="#ffffff"/>
</g>
<g clip-path="url(#clip_27)">
<path d="M41.23 23.914 40.84 23.27V23.262H40.629L41.25 24.25C41.25 24.25 41.441 24.148 41.617 23.98 41.664 23.949 41.695 23.902 41.719 23.871 41.809 23.738 41.809 23.559 41.719 23.426L41.586 23.215C41.527 23.215 41.477 23.223 41.418 23.223L41.629 23.582C41.641 23.617 41.641 23.648 41.605 23.66 41.586 23.68 41.555 23.668 41.527 23.637L41.285 23.238C41.25 23.238 41.219 23.238 41.184 23.246L41.477 23.727C41.496 23.75 41.484 23.785 41.465 23.793 41.43 23.813 41.395 23.805 41.387 23.785L41.063 23.246H40.965L41.328 23.859C41.344 23.883 41.328 23.914 41.309 23.938 41.285 23.949 41.242 23.938 41.23 23.914" fill="#ffffff"/>
</g>
<g clip-path="url(#clip_28)">
<path d="M37.438 21.934C37.52 21.934 37.57 21.883 37.57 21.805 37.57 21.738 37.52 21.672 37.438 21.672 37.359 21.672 37.309 21.738 37.309 21.805 37.309 21.883 37.359 21.934 37.438 21.934" fill="#ffffff"/>
</g>
<g clip-path="url(#clip_29)">
<path d="M36.438 21.914C36.438 21.914 36.438 22.012 36.508 22.113 36.527 22.137 36.539 22.156 36.563 22.18 36.66 22.172 36.762 22.137 36.848 22.094 36.863 22.094 36.863 22.082 36.871 22.082 36.914 22.059 36.965 22.082 36.984 22.125 37.008 22.172 36.984 22.215 36.949 22.238 36.941 22.238 36.93 22.238 36.93 22.246 36.863 22.27 36.797 22.293 36.727 22.316H36.719C36.738 22.34 36.762 22.348 36.781 22.359 37.105 22.582 37.672 22.785 38.465 22.914 38.652 22.695 38.777 22.402 38.777 22.094V22.07C38.777 22.027 38.809 21.984 38.852 21.984H38.863C38.906 21.984 38.941 22.012 38.941 22.07V22.094C38.941 22.414 38.828 22.715 38.652 22.949 39.266 23.047 40.008 23.105 40.875 23.105 41.934 23.105 43.566 22.703 44.289 22.438 44.391 22.383 44.5 22.348 44.625 22.316 44.637 22.305 44.648 22.305 44.66 22.305 44.668 22.305 44.68 22.293 44.691 22.293 44.938 22.238 45.203 22.203 45.492 22.203 45.605 22.203 45.715 22.203 45.824 22.215 45.914 22.059 45.961 21.895 45.961 21.727V21.715C45.961 21.547 45.906 21.379 45.824 21.223 45.715 21.234 45.605 21.246 45.492 21.246 45.203 21.246 44.938 21.203 44.691 21.145 44.68 21.145 44.668 21.145 44.66 21.137 44.648 21.137 44.625 21.125 44.617 21.125 44.559 21.113 44.516 21.094 44.469 21.082 43.746 20.848 42.637 20.715 41.488 20.715 39.352 20.715 36.438 21.379 36.438 21.914M43.379 21.801H43.535C43.605 21.801 43.656 21.848 43.656 21.914 43.656 21.969 43.605 22.027 43.535 22.027H43.379C43.313 22.027 43.258 21.969 43.258 21.914 43.258 21.848 43.313 21.801 43.379 21.801M42.805 21.582H42.969C43.035 21.582 43.078 21.625 43.078 21.691 43.078 21.758 43.035 21.801 42.969 21.801H42.805C42.746 21.801 42.688 21.758 42.688 21.691 42.688 21.625 42.746 21.582 42.805 21.582M42.805 22.012H42.969C43.035 22.012 43.078 22.07 43.078 22.137 43.078 22.191 43.035 22.246 42.969 22.246H42.805C42.746 22.246 42.688 22.191 42.688 22.137 42.688 22.07 42.746 22.012 42.805 22.012M42.234 21.801H42.402C42.457 21.801 42.512 21.848 42.512 21.914 42.512 21.969 42.457 22.027 42.402 22.027H42.234C42.168 22.027 42.121 21.969 42.121 21.914 42.121 21.848 42.168 21.801 42.234 21.801M42.234 22.238H42.402C42.457 22.238 42.512 22.293 42.512 22.348 42.512 22.414 42.457 22.457 42.402 22.457H42.234C42.168 22.457 42.121 22.414 42.121 22.348 42.121 22.293 42.168 22.238 42.234 22.238M41.668 21.582H41.836C41.887 21.582 41.945 21.625 41.945 21.691 41.945 21.758 41.887 21.801 41.836 21.801H41.668C41.602 21.801 41.559 21.758 41.559 21.691 41.559 21.625 41.602 21.582 41.668 21.582M41.668 22.012H41.836C41.887 22.012 41.945 22.07 41.945 22.137 41.945 22.191 41.887 22.246 41.836 22.246H41.668C41.602 22.246 41.559 22.191 41.559 22.137 41.559 22.07 41.602 22.012 41.668 22.012M41.668 22.457H41.836C41.887 22.457 41.945 22.504 41.945 22.57 41.945 22.637 41.887 22.68 41.836 22.68H41.668C41.602 22.68 41.559 22.637 41.559 22.57 41.559 22.504 41.602 22.457 41.668 22.457M39.23 21.539C39.242 21.527 39.242 21.527 39.254 21.527L39.344 21.504 39.977 21.313C40 21.313 40.031 21.324 40.043 21.359 40.055 21.379 40.031 21.414 40 21.422L39.352 21.613 39.309 21.625C39.285 21.59 39.266 21.559 39.23 21.539M40.055 21.559C40.066 21.59 40.055 21.613 40.02 21.625L39.387 21.816C39.387 21.77 39.375 21.734 39.352 21.703L39.984 21.527C40.02 21.516 40.055 21.527 40.055 21.559M40.117 22.457H39.965C39.898 22.457 39.844 22.414 39.844 22.348 39.844 22.293 39.898 22.238 39.965 22.238H40.117C40.188 22.238 40.242 22.293 40.242 22.348 40.242 22.414 40.188 22.457 40.117 22.457M40.688 22.68H40.52C40.453 22.68 40.41 22.637 40.41 22.57 40.41 22.504 40.453 22.457 40.52 22.457H40.688C40.758 22.457 40.801 22.504 40.801 22.57 40.801 22.637 40.758 22.68 40.688 22.68M40.688 22.246H40.52C40.453 22.246 40.41 22.191 40.41 22.137 40.41 22.07 40.453 22.012 40.52 22.012H40.688C40.758 22.012 40.801 22.07 40.801 22.137 40.801 22.191 40.758 22.246 40.688 22.246M41.254 22.457H41.09C41.031 22.457 40.977 22.414 40.977 22.348 40.977 22.293 41.031 22.238 41.09 22.238H41.254C41.32 22.238 41.367 22.293 41.367 22.348 41.367 22.414 41.32 22.457 41.254 22.457M41.254 21.801C41.32 21.801 41.367 21.848 41.367 21.914 41.367 21.969 41.32 22.027 41.254 22.027H41.09C41.031 22.027 40.977 21.969 40.977 21.914 40.977 21.848 41.031 21.801 41.09 21.801ZM39.141 21.336 40.969 20.824C40.988 20.824 41.02 20.836 41.031 20.855 41.043 20.883 41.043 20.914 41.02 20.926 40.82 21.16 40.309 21.691 40.031 21.992 39.941 22.082 39.813 22.125 39.688 22.125 39.629 22.125 39.563 22.113 39.508 22.094L39.367 22.035C39.332 22.027 39.316 21.984 39.332 21.945 39.352 21.926 39.387 21.902 39.418 21.914L39.555 21.984C39.688 22.035 39.844 22.004 39.93 21.902 40.168 21.656 40.547 21.27 40.785 21L39.176 21.457C39.141 21.469 39.105 21.445 39.098 21.414 39.086 21.379 39.105 21.348 39.141 21.336M37.496 21.59C37.629 21.59 37.75 21.703 37.75 21.848 37.75 21.992 37.629 22.113 37.496 22.113 37.352 22.113 37.227 21.992 37.227 21.848 37.227 21.703 37.352 21.59 37.496 21.59" fill="#ffffff"/>
</g>
<g clip-path="url(#clip_30)">
<path d="M32.23 20.445C32.281 20.324 32.188 20.188 32.051 20.223L30.047 21.223C30.07 21.27 30.09 21.301 30.105 21.336H30.125L30.715 21.035C30.738 21.023 30.773 21.035 30.781 21.059 30.805 21.09 30.793 21.125 30.758 21.133L30.16 21.434 30.148 21.445C30.16 21.48 30.16 21.504 30.172 21.535L30.773 21.234C30.793 21.211 30.828 21.223 30.848 21.258 30.859 21.277 30.848 21.313 30.816 21.336L30.184 21.645C30.184 21.668 30.191 21.699 30.191 21.723 30.191 21.723 30.184 21.734 30.184 21.746L30.816 22.07C30.848 22.078 30.859 22.113 30.848 22.137 30.84 22.156 30.828 22.168 30.805 22.168H30.773L30.172 21.867C30.172 21.891 30.16 21.926 30.16 21.957L30.758 22.258C30.793 22.281 30.805 22.313 30.781 22.336 30.781 22.348 30.773 22.355 30.75 22.367 30.738 22.367 30.727 22.367 30.715 22.355L30.125 22.059C30.105 22.113 30.082 22.156 30.047 22.215L32.051 23.215C32.188 23.25 32.281 23.113 32.23 22.992L31.648 21.836C31.605 21.758 31.605 21.668 31.648 21.578ZM32.23 20.445" fill="#ffffff"/>
</g>
<g clip-path="url(#clip_31)">
<path d="M28.379 20.887C28.488 20.918 28.59 20.941 28.691 20.988 28.734 20.852 28.715 20.707 28.621 20.586 28.602 20.566 28.578 20.531 28.555 20.484 28.324 20.152 28.324 19.84 28.324 19.84L27.258 20.676C27.324 20.684 27.391 20.695 27.469 20.707H27.477L28.059 20.23C28.082 20.207 28.113 20.215 28.133 20.238 28.156 20.262 28.156 20.297 28.125 20.32L27.625 20.73C27.656 20.742 27.703 20.742 27.734 20.754L28.156 20.406C28.18 20.383 28.211 20.398 28.234 20.418 28.258 20.441 28.242 20.473 28.223 20.496L27.879 20.777C27.922 20.785 27.957 20.785 28 20.797L28.242 20.586C28.277 20.574 28.313 20.574 28.324 20.594 28.344 20.617 28.344 20.652 28.324 20.676L28.133 20.828C28.168 20.828 28.211 20.844 28.242 20.852L28.355 20.762C28.379 20.742 28.41 20.742 28.434 20.762 28.457 20.797 28.445 20.828 28.422 20.852ZM28.379 20.887" fill="#ffffff"/>
</g>
<g clip-path="url(#clip_32)">
<path d="M26.129 20.586C26.137 20.496 26.152 20.418 26.152 20.363 26.059 19.773 25.738 19.617 25.738 19.617L25.059 20.586H25.238L25.617 20.031C25.629 19.996 25.672 19.996 25.695 20.008 25.715 20.031 25.73 20.063 25.703 20.082L25.375 20.586C25.418 20.574 25.449 20.574 25.484 20.574L25.762 20.172C25.773 20.141 25.816 20.141 25.84 20.152 25.863 20.172 25.871 20.207 25.848 20.23L25.617 20.574H25.73L25.906 20.316C25.914 20.285 25.961 20.285 25.984 20.297 26.004 20.316 26.016 20.352 25.992 20.375L25.863 20.574C25.949 20.586 26.039 20.586 26.129 20.586" fill="#ffffff"/>
</g>
<g clip-path="url(#clip_33)">
<path d="M27.449 22.867C27.359 22.887 27.293 22.895 27.258 22.91L28.27 23.711C28.27 23.711 28.285 23.398 28.504 23.055 28.527 23.02 28.551 22.988 28.57 22.965 28.684 22.82 28.695 22.641 28.605 22.508 28.504 22.539 28.395 22.586 28.27 22.617L28.371 22.707C28.402 22.73 28.402 22.766 28.383 22.785 28.359 22.809 28.328 22.82 28.309 22.797L28.148 22.664C28.117 22.676 28.082 22.684 28.051 22.699L28.27 22.875C28.293 22.887 28.293 22.93 28.285 22.953 28.262 22.977 28.227 22.977 28.207 22.953L27.926 22.73C27.895 22.742 27.848 22.754 27.813 22.766L28.172 23.055C28.191 23.078 28.207 23.109 28.184 23.129 28.16 23.156 28.125 23.156 28.105 23.141L27.695 22.797C27.648 22.809 27.617 22.82 27.582 22.828L28.082 23.23C28.105 23.254 28.105 23.289 28.082 23.309 28.074 23.332 28.023 23.34 28.004 23.32ZM27.449 22.867" fill="#ffffff"/>
</g>
<g clip-path="url(#clip_34)">
<path d="M25.289 23.914 24.902 23.27V23.262H24.691L25.313 24.25C25.313 24.25 25.5 24.148 25.68 23.98 25.723 23.949 25.758 23.902 25.777 23.871 25.871 23.738 25.871 23.559 25.777 23.426L25.645 23.215C25.59 23.215 25.535 23.223 25.477 23.223L25.688 23.582C25.703 23.617 25.703 23.648 25.668 23.66 25.645 23.68 25.609 23.668 25.59 23.637L25.348 23.238C25.313 23.238 25.281 23.238 25.246 23.246L25.535 23.727C25.559 23.75 25.547 23.785 25.523 23.793 25.492 23.813 25.457 23.805 25.449 23.785L25.121 23.246H25.02L25.391 23.859C25.398 23.883 25.391 23.914 25.367 23.938 25.348 23.949 25.301 23.938 25.289 23.914" fill="#ffffff"/>
</g>
<g clip-path="url(#clip_35)">
<path d="M21.488 21.676C21.41 21.676 21.355 21.734 21.355 21.809 21.355 21.875 21.41 21.945 21.488 21.945 21.57 21.945 21.621 21.875 21.621 21.809 21.621 21.734 21.57 21.676 21.488 21.676" fill="#ffffff"/>
</g>
<g clip-path="url(#clip_36)">
<path d="M28.711 22.305C28.723 22.305 28.73 22.305 28.746 22.293 28.992 22.238 29.254 22.203 29.547 22.203 29.656 22.203 29.77 22.203 29.867 22.215 29.957 22.059 30.004 21.891 30.004 21.723V21.715C30.004 21.547 29.957 21.391 29.867 21.227 29.77 21.238 29.656 21.25 29.547 21.25 29.254 21.25 28.992 21.215 28.746 21.148H28.711C28.688 21.137 28.68 21.137 28.668 21.125 28.613 21.113 28.566 21.09 28.512 21.082 27.789 20.859 26.688 20.727 25.543 20.727 23.406 20.727 20.488 21.391 20.488 21.914 20.488 21.914 20.488 22.016 20.559 22.117 20.57 22.137 20.59 22.16 20.613 22.184 20.715 22.168 20.816 22.137 20.902 22.094 20.914 22.094 20.914 22.094 20.926 22.082 20.969 22.07 21.012 22.082 21.035 22.125 21.059 22.168 21.035 22.215 20.992 22.238 20.992 22.238 20.984 22.25 20.969 22.25 20.914 22.27 20.848 22.305 20.781 22.313 20.781 22.313 20.77 22.313 20.77 22.328 20.793 22.336 20.801 22.348 20.824 22.359 21.156 22.582 21.727 22.781 22.504 22.918 22.703 22.707 22.828 22.406 22.828 22.094V22.07C22.828 22.027 22.859 21.98 22.906 21.98 22.949 21.98 22.992 22.027 22.992 22.07V22.094C22.992 22.414 22.883 22.715 22.703 22.949 23.316 23.051 24.063 23.105 24.93 23.105 25.984 23.105 27.621 22.707 28.344 22.438 28.445 22.395 28.555 22.348 28.68 22.313 28.688 22.313 28.699 22.305 28.711 22.305M21.539 22.117C21.391 22.117 21.281 21.992 21.281 21.859 21.281 21.715 21.391 21.594 21.539 21.594 21.68 21.594 21.805 21.715 21.805 21.859 21.805 21.992 21.68 22.117 21.539 22.117M23.285 21.535C23.293 21.535 23.293 21.527 23.305 21.527L23.383 21.504H23.395L24.016 21.324C24.051 21.316 24.086 21.324 24.094 21.359 24.094 21.391 24.086 21.414 24.051 21.426L23.406 21.613 23.363 21.625C23.34 21.594 23.316 21.559 23.285 21.535M24.105 21.559C24.117 21.594 24.094 21.625 24.074 21.625L23.438 21.816C23.43 21.781 23.414 21.738 23.406 21.703L24.039 21.527C24.074 21.512 24.094 21.535 24.105 21.559M24.172 22.473H24.004C23.953 22.473 23.895 22.414 23.895 22.348 23.895 22.293 23.953 22.238 24.004 22.238H24.172C24.238 22.238 24.285 22.293 24.285 22.348 24.285 22.414 24.238 22.473 24.172 22.473M24.742 22.684H24.574C24.508 22.684 24.461 22.641 24.461 22.57 24.461 22.516 24.508 22.461 24.574 22.461H24.742C24.797 22.461 24.852 22.516 24.852 22.57 24.852 22.641 24.797 22.684 24.742 22.684M24.742 22.25H24.574C24.508 22.25 24.461 22.191 24.461 22.137 24.461 22.07 24.508 22.016 24.574 22.016H24.742C24.797 22.016 24.852 22.07 24.852 22.137 24.852 22.191 24.797 22.25 24.742 22.25M24.074 21.992C23.984 22.082 23.859 22.137 23.742 22.137 23.672 22.137 23.617 22.125 23.551 22.094L23.414 22.039C23.383 22.027 23.371 21.992 23.383 21.957 23.395 21.926 23.438 21.906 23.473 21.926L23.605 21.98C23.742 22.039 23.883 22.004 23.984 21.906 24.215 21.66 24.594 21.27 24.84 21.016L23.227 21.461C23.195 21.469 23.16 21.449 23.152 21.414 23.137 21.383 23.16 21.348 23.195 21.336L25.008 20.836C25.039 20.828 25.063 20.836 25.086 20.859 25.098 20.879 25.098 20.914 25.074 20.938 24.875 21.156 24.363 21.695 24.074 21.992M25.309 22.473H25.141C25.086 22.473 25.031 22.414 25.031 22.348 25.031 22.293 25.086 22.238 25.141 22.238H25.309C25.375 22.238 25.418 22.293 25.418 22.348 25.418 22.414 25.375 22.473 25.309 22.473M25.309 22.027H25.141C25.086 22.027 25.031 21.98 25.031 21.914 25.031 21.848 25.086 21.805 25.141 21.805H25.309C25.375 21.805 25.418 21.848 25.418 21.914 25.418 21.98 25.375 22.027 25.309 22.027M25.875 22.684H25.719C25.652 22.684 25.598 22.641 25.598 22.57 25.598 22.516 25.652 22.461 25.719 22.461H25.875C25.941 22.461 25.984 22.516 25.984 22.57 25.984 22.641 25.941 22.684 25.875 22.684M25.875 22.25H25.719C25.652 22.25 25.598 22.191 25.598 22.137 25.598 22.07 25.652 22.016 25.719 22.016H25.875C25.941 22.016 25.984 22.07 25.984 22.137 25.984 22.191 25.941 22.25 25.875 22.25M25.875 21.805H25.719C25.652 21.805 25.598 21.758 25.598 21.695 25.598 21.625 25.652 21.582 25.719 21.582H25.875C25.941 21.582 25.984 21.625 25.984 21.695 25.984 21.758 25.941 21.805 25.875 21.805M26.453 22.473H26.285C26.219 22.473 26.176 22.414 26.176 22.348 26.176 22.293 26.219 22.238 26.285 22.238H26.453C26.508 22.238 26.566 22.293 26.566 22.348 26.566 22.414 26.508 22.473 26.453 22.473M26.453 22.027H26.285C26.219 22.027 26.176 21.98 26.176 21.914 26.176 21.848 26.219 21.805 26.285 21.805H26.453C26.508 21.805 26.566 21.848 26.566 21.914 26.566 21.98 26.508 22.027 26.453 22.027M27.02 22.25H26.852C26.785 22.25 26.742 22.191 26.742 22.137 26.742 22.07 26.785 22.016 26.852 22.016H27.02C27.086 22.016 27.129 22.07 27.129 22.137 27.129 22.191 27.086 22.25 27.02 22.25M27.02 21.805H26.852C26.785 21.805 26.742 21.758 26.742 21.695 26.742 21.625 26.785 21.582 26.852 21.582H27.02C27.086 21.582 27.129 21.625 27.129 21.695 27.129 21.758 27.086 21.805 27.02 21.805M27.586 22.027H27.422C27.367 22.027 27.309 21.98 27.309 21.914 27.309 21.848 27.367 21.805 27.422 21.805H27.586C27.652 21.805 27.699 21.848 27.699 21.914 27.699 21.98 27.652 22.027 27.586 22.027" fill="#ffffff"/>
</g>
<g clip-path="url(#clip_37)">
<path d="M28.43 4.445 31.813 6.902C31.922 6.98 31.977 7.148 31.934 7.27L30.645 11.254C30.598 11.375 30.656 11.422 30.766 11.344L34.145 8.883C34.262 8.809 34.426 8.809 34.539 8.883L37.918 11.344C38.031 11.422 38.074 11.375 38.039 11.254L36.75 7.27C36.707 7.148 36.758 6.98 36.859 6.902L40.254 4.445C40.355 4.367 40.332 4.301 40.211 4.301H36.016C35.895 4.301 35.746 4.199 35.703 4.078L34.414 .098C34.371-.023 34.305-.023 34.27 .098L32.965 4.078C32.934 4.199 32.793 4.301 32.66 4.301H28.473C28.34 4.301 28.32 4.367 28.43 4.445" fill="#ffffff"/>
</g>
<g clip-path="url(#clip_38)">
<path d="M65.66 43.266C65.59 42.844 65.348 42.5 65.023 42.332H65.035C65.215 41.863 65.668 41.844 66.016 41.633 65.59 41.75 65.266 41.676 64.801 42.008 64.844 41.828 64.844 41.652 64.824 41.465 64.711 40.773 64.137 40.316 63.531 40.453 63.32 40.496 63.145 40.605 63 40.75 62.82 40.219 62.488 39.863 62.031 39.895 62.332 39.895 62.766 40.57 62.223 40.73 61.5 40.93 61.02 41.762 61.152 42.621 61.23 43.098 61.488 43.488 61.809 43.723 61.945 43.809 62.02 43.965 61.887 44.109 61.887 44.109 61.02 44.566 60.285 45.688 60.363 45.426 60.441 45.156 60.508 44.902 60.508 44.902 60.91 42.797 60.887 40.316 61.074 39.77 61.43 38.84 61.797 38.328 61.953 38.148 62.121 38.004 62.344 38.027 62.543 38.051 62.711 38.094 62.855 38.148 63.367 38.328 63.969 38.371 64.445 38.059 64.902 37.746 65.156 37.125 65.023 36.516 64.969 36.27 64.859 36.047 64.711 35.879 64.801 35.613 64.824 35.313 64.758 35.023 64.59 34.234 63.91 33.766 63.223 33.953 63 34.023 62.797 34.156 62.645 34.332 62.398 34.234 62.121 34.211 61.852 34.289 61.262 34.457 60.855 35.059 60.832 35.723 60.82 36.09 60.934 36.48 61.098 36.793 61.195 36.969 61.32 37.125 61.473 37.293 61.699 37.547 61.887 37.746 61.676 38.117 61.656 38.148 61.633 38.191 61.609 38.227 61.609 38.227 61.176 38.805 60.863 39.652 60.855 39.215 60.82 38.77 60.766 38.336 60.574 37.09 60.563 35.91 60.641 34.668 60.688 33.73 60.664 33.313 61.098 32.52 61.188 32.352 61.289 32.211 61.398 32.117 61.523 32.02 61.641 32.031 61.676 32.211 61.82 33.02 62.5 33.543 63.211 33.387 63.379 33.355 63.531 33.289 63.664 33.188 64.09 32.875 64.801 32.684 64.902 33.477 64.957 32.941 64.578 32.453 64.18 32.496 64.793 32.363 65.191 31.688 65.078 30.984 65.012 30.609 64.813 30.305 64.547 30.117 64.516 30.094 64.48 30.07 64.457 30.051 64.633 29.594 65.09 29.563 65.434 29.352 65.012 29.473 64.691 29.406 64.223 29.727 64.27 29.539 64.27 29.352 64.234 29.148 64.121 28.57 63.68 28.172 63.176 28.148 63.09 28.148 63 28.148 62.914 28.16 62.723 28.207 62.543 28.293 62.398 28.426 62.223 27.926 61.898 27.594 61.453 27.617 61.754 27.617 62.188 28.293 61.641 28.449 60.918 28.66 60.441 29.48 60.574 30.352 60.652 30.82 60.91 31.207 61.23 31.441 61.363 31.543 61.441 31.695 61.309 31.832 61.152 32 61.031 32.23 60.918 32.422 60.809 32.633 60.707 32.789 60.609 32.773 60.496 32.031 60.297 31.273 60.207 30.516 60.152 30.051 60.141 29.563 60.176 28.973 60.195 28.672 60.23 28.383 60.262 28.047 60.273 27.98 60.273 27.926 60.285 27.859 60.309 27.813 60.41 27.684 60.441 27.617 60.441 27.617 60.563 27.336 60.797 27.18 60.797 27.18 60.551 27.535 60.496 27.691 61.508 27.879 61.398 26.672 61.398 26.672 60.387 26.535 60.418 27.559 60.418 27.559 60.418 27.559 60.363 27.684 60.297 27.715 60.328 27.449 60.363 27.203 60.387 26.949 60.418 26.445 60.539 26.082 60.832 25.789L61.109 25.469C61.262 25.289 61.43 25.156 61.656 25.168 61.852 25.191 62.02 25.234 62.164 25.289 62.676 25.469 63.277 25.512 63.758 25.203 64.211 24.902 64.457 24.277 64.332 23.656 64.277 23.41 64.168 23.199 64.023 23.02 64.023 23.02 64.055 22.922 64.066 22.777 64.09 22.645 64.102 22.52 64.09 22.375 64.09 22.363 64.09 22.352 64.078 22.34 64.078 22.289 64.078 22.223 64.066 22.164 63.902 21.387 63.211 20.906 62.535 21.094 62.309 21.164 62.113 21.297 61.945 21.473 61.711 21.375 61.43 21.352 61.164 21.43 60.563 21.598 60.164 22.199 60.141 22.863 60.133 23.234 60.242 23.633 60.41 23.934 60.508 24.109 60.629 24.277 60.773 24.434 61.008 24.691 61.188 24.887 60.984 25.258 60.965 25.301 60.941 25.332 60.91 25.367L60.766 25.555C60.629 25.68 60.508 25.824 60.387 26.023 60.344 25.09 59.984 24.211 59.785 23.285 59.676 22.762 59.594 22.242 59.551 21.609 59.543 21.539 59.543 21.473 59.527 21.406 59.52 21.219 59.52 21.031 59.543 20.863 59.563 20.672 59.637 20.496 59.773 20.227 60.031 19.719 60.207 19.063 59.871 18.438 60.133 19.086 59.906 19.516 59.629 20.039 59.563 20.195 59.473 20.328 59.43 20.473 59.332 19.973 59.098 19.551 58.836 19.137 58.785 19.063 58.742 18.984 58.695 18.906 58.66 18.852 58.742 18.738 58.742 18.738 58.742 18.738 59.285 18.504 58.93 17.781 58.93 17.781 58.262 18.004 58.641 18.715 58.707 18.641 58.828 18.371 58.828 18.371 58.805 18.57 58.707 18.738 58.707 18.738 58.684 18.758 58.672 18.805 58.648 18.84 58.629 18.793 58.594 18.75 58.574 18.707 58.496 18.559 58.406 18.371 58.348 18.184 58.262 17.906 58.297 17.848 58.43 17.613 58.629 17.273 58.66 16.703 58.484 16.125 58.238 15.336 57.672 14.848 57.234 15.023 56.793 15.211 56.637 16.004 56.895 16.793 57.07 17.383 57.426 17.805 57.781 17.906 58.035 17.984 58.086 17.969 58.203 18.27 58.34 18.629 58.539 18.938 58.719 19.238 58.793 19.34 58.836 19.449 58.887 19.559 58.836 19.539 58.785 19.484 58.785 19.484 58.785 19.484 58.574 18.715 57.781 19.16 57.781 19.16 57.973 20.105 58.75 19.617 58.672 19.516 58.395 19.328 58.395 19.328 58.605 19.371 58.785 19.539 58.785 19.539 58.805 19.559 58.887 19.617 58.938 19.652 59.063 19.93 59.172 20.207 59.23 20.527 59.293 20.82 59.316 21.117 59.34 21.422 59.352 21.488 59.352 21.551 59.363 21.609 59.375 21.809 59.383 21.988 59.398 22.176 59.461 22.91 59.594 23.543 59.785 24.254 59.863 24.512 59.918 24.777 59.965 25.047 59.965 25.047 59.73 24.266 58.875 23.422 58.707 23.254 58.641 23.02 58.793 22.797 59.051 22.434 59.129 21.93 58.973 21.465 58.816 21.043 58.508 20.75 58.152 20.664 57.848 20.586 57.75 20.031 58.016 19.805 57.738 19.973 57.617 20.273 57.637 20.586 57.359 20.262 56.949 20.148 56.559 20.328 56.258 20.473 56.035 20.773 55.969 21.117 55.816 21.141 55.668 21.195 55.523 21.285 55.035 21.598 54.789 22.273 54.945 22.887 55 23.109 55.113 23.285 55.234 23.445 55.27 23.496 55.289 23.543 55.324 23.598 55.324 23.598 55.313 23.688 55.313 23.824 55.305 24 55.313 24.176 55.371 24.355 55.539 24.836 55.938 25.121 56.371 25.121 56.359 25.477 56.469 25.836 56.738 26 56.535 25.77 56.637 25.289 56.906 25.203H56.949C57.184 25.289 57.438 25.289 57.672 25.18 57.949 25.055 58.152 24.813 58.262 24.512 58.305 24.367 58.348 24.176 58.348 24.012 58.348 23.68 58.582 23.555 58.852 23.699 58.805 23.633 59.273 24.168 59.563 24.734 59.82 25.234 60.039 25.77 60.074 26.293 60.094 26.602 60.063 26.926 60.031 27.246 59.93 27.227 59.871 27.027 59.871 27.027 59.871 27.027 60.031 25.723 58.785 25.758 58.785 25.758 58.508 27.281 59.762 27.18 59.719 26.98 59.461 26.492 59.461 26.492 59.719 26.723 59.84 27.094 59.84 27.094 59.871 27.18 59.973 27.379 60.008 27.438 59.973 27.617 59.953 27.805 59.93 27.996 59.871 28.516 59.82 28.859 59.797 29.27 59.773 29.793 59.785 30.137 59.84 30.652 59.563 29.938 59.063 29.582 59.063 29.582 58.605 29.219 58.508 28.883 58.828 28.418 58.961 28.215 59.164 28.07 59.375 28.059 59.184 28.016 58.996 28.07 58.859 28.16 58.895 27.98 58.906 27.793 58.875 27.602 58.742 26.824 58.059 26.324 57.359 26.492 57.227 26.512 57.094 26.57 56.973 26.648 56.871 26.625 56.746 26.625 56.637 26.648 56.301 26.723 56.059 26.992 55.957 27.324 55.59 27.406 55.313 27.758 55.289 28.172 55.289 28.324 55.313 28.469 55.359 28.605 55.137 28.859 55.023 29.238 55.094 29.629 55.137 29.895 55.254 30.117 55.414 30.273 55.414 30.297 55.414 30.305 55.422 30.328 55.457 30.527 55.523 30.707 55.613 30.863 55.625 30.871 55.625 30.887 55.625 30.895 55.633 30.895 55.633 30.895 55.633 30.91 55.656 30.953 55.691 31.008 55.727 31.055 55.781 31.129 55.859 31.195 55.945 31.266 56.258 31.52 56.66 31.641 57.082 31.551 57.648 31.418 58.035 30.918 58.203 30.34 58.32 29.938 58.383 29.707 58.684 29.738 58.816 29.762 58.953 29.84 59.063 29.938 59.262 30.148 59.617 30.594 59.84 31.383 59.918 31.652 60.031 32 60.094 32.363 60.176 32.82 60.207 33.23 60.219 33.652 60.141 33.609 60.086 33.434 60.086 33.434 60.086 33.434 60.242 32.141 58.996 32.164 58.996 32.164 58.719 33.699 59.973 33.602 59.93 33.387 59.676 32.91 59.676 32.91 59.93 33.129 60.051 33.508 60.051 33.508 60.086 33.602 60.195 33.813 60.219 33.855 60.219 34.098 60.207 34.355 60.184 34.633 60.117 35.457 60.117 36.313 60.176 37.148 59.941 36.668 59.563 36.281 59.563 36.281 59.418 36.09 59.34 35.879 59.484 35.656 59.738 35.293 59.82 34.789 59.66 34.324 59.52 33.898 59.195 33.609 58.836 33.523 58.539 33.434 58.449 32.875 58.707 32.664 58.43 32.832 58.305 33.129 58.328 33.434 58.051 33.121 57.637 33.012 57.25 33.188 56.949 33.332 56.738 33.621 56.66 33.977 56.559 33.988 56.457 34.012 56.359 34.066 55.734 34.344 55.438 35.156 55.684 35.867 55.758 36.09 55.883 36.281 56.027 36.426 56.027 36.426 56.012 36.48 56.012 36.547 55.98 36.77 55.98 36.988 56.059 37.215 56.227 37.691 56.625 37.98 57.063 37.98 57.047 38.328 57.16 38.691 57.426 38.852 57.227 38.617 57.336 38.137 57.605 38.051 57.84 38.148 58.105 38.148 58.363 38.035 58.641 37.906 58.836 37.66 58.953 37.367 58.996 37.227 59.039 37.035 59.039 36.871 59.039 36.523 59.25 36.355 59.461 36.566 60.184 37.301 60.363 38.758 60.375 38.902 60.398 39.086 60.41 39.305 60.43 39.551 60.363 39.492 60.32 39.348 60.32 39.348 60.32 39.348 60.477 38.059 59.23 38.078 59.23 38.078 58.961 39.617 60.207 39.516 60.176 39.305 59.906 38.828 59.906 38.828 60.164 39.051 60.297 39.418 60.297 39.418 60.32 39.492 60.387 39.641 60.43 39.719 60.461 40.563 60.43 41.762 60.219 43.332 60.133 43.008 59.996 42.676 59.754 42.441 59.34 42.039 59.195 41.742 59.52 41.273 59.652 41.074 59.848 40.93 60.074 40.918 59.871 40.875 59.688 40.93 59.551 41.02 59.586 40.84 59.594 40.641 59.563 40.453 59.43 39.684 58.762 39.184 58.051 39.34 57.918 39.371 57.781 39.426 57.672 39.508 57.563 39.473 57.438 39.473 57.328 39.508 56.992 39.57 56.746 39.852 56.648 40.184 56.281 40.262 56.004 40.605 55.98 41.027 55.98 41.184 56.004 41.328 56.047 41.465 55.824 41.719 55.715 42.098 55.781 42.484 55.824 42.742 55.945 42.965 56.105 43.133 56.105 43.141 56.113 43.164 56.113 43.188 56.258 44.035 56.992 44.574 57.773 44.398 58.34 44.277 58.773 43.777 58.895 43.188 58.938 42.965 59.004 42.652 59.262 42.609 59.406 42.586 59.563 42.676 59.652 42.82 59.805 43.055 60.039 43.574 60.039 44.422 59.563 46.926 58.594 49.051 57.871 50.641 58.16 50.531 58.449 50.406 58.719 50.297 58.961 49.691 59.23 48.98 59.527 48.156L59.984 46.848C59.984 46.848 60.73 45.098 61.977 44.398 62.113 44.32 62.223 44.313 62.254 44.488 62.398 45.301 63.074 45.824 63.789 45.668 63.957 45.637 64.113 45.566 64.246 45.469 64.668 45.156 65.379 44.969 65.477 45.746 65.535 45.266 65.234 44.836 64.867 44.789 64.969 44.734 65.055 44.68 65.148 44.598 65.527 44.32 65.746 43.797 65.66 43.266M61.633 36.859C61.375 36.68 61.188 36.379 61.109 36.012 60.953 35.301 61.309 34.59 61.898 34.422 62.5 34.258 63.102 34.688 63.254 35.402 63.289 35.555 63.301 35.715 63.277 35.867 63.387 35.789 63.5 35.723 63.633 35.691 64.188 35.523 64.758 35.926 64.902 36.566 65.035 37.215 64.691 37.871 64.137 38.027 63.734 38.137 63.32 37.98 63.074 37.637 63.621 37.426 63.934 36.871 63.934 36.355 63.832 36.613 63.699 36.813 63.547 36.98 62.52 37.969 62.199 36.711 62.891 35.859 62.477 36.113 62.223 36.637 62.223 37.035 61.766 36.813 61.5 35.789 61.664 35.223 61.41 35.715 61.465 36.355 61.633 36.859M63.254 30.363C63.633 30.395 64.035 29.828 64.035 29.828 63.832 30.496 63.477 30.527 63.477 30.527 64.414 31.207 63.957 32.211 63.957 32.211 64.211 30.828 62.914 30.629 62.914 30.629 63.32 29.371 62.441 28.727 62.441 28.727 63.488 29.352 63.254 30.363 63.254 30.363M60.941 24C60.688 23.824 60.496 23.52 60.41 23.164 60.262 22.453 60.621 21.742 61.211 21.563 61.809 21.398 62.41 21.844 62.566 22.551 62.598 22.699 62.598 22.855 62.586 23.008 62.688 22.93 62.809 22.863 62.945 22.832 63.5 22.676 64.066 23.066 64.211 23.711 64.348 24.355 64 25.012 63.434 25.168 63.031 25.289 62.633 25.121 62.387 24.777 62.922 24.578 63.242 24.02 63.242 23.496 63.145 23.754 63.012 23.965 62.844 24.121 61.832 25.113 61.508 23.855 62.199 23 61.785 23.254 61.531 23.777 61.523 24.176 61.074 23.957 60.809 22.93 60.965 22.363 60.719 22.855 60.773 23.496 60.941 24M58.195 17.191C58.203 16.781 58.027 16.313 57.672 16.09 57.961 16.336 58.117 16.828 58.004 17.238 57.863 16.992 57.695 16.895 57.461 16.746 57.359 16.68 57.273 16.602 57.191 16.512 56.938 16.215 56.816 15.781 56.957 15.379 57.039 15.234 57.141 15.133 57.258 15.09 57.617 14.934 58.074 15.301 58.32 15.91 58.473 16.48 58.449 16.914 58.195 17.191M57.25 22.977C55.844 23.445 56.535 24.777 56.535 24.777 55.793 23.531 56.457 23.031 56.457 23.031 55.844 22.797 55.48 23.453 55.48 23.453 55.781 22.598 56.438 22.563 56.438 22.563 55.867 22.109 56.027 21.398 56.027 21.398 56.125 22.199 56.602 22.273 56.602 22.273 56.625 20.719 57.758 20.809 57.758 20.809 56.16 21.473 57.25 22.977 57.25 22.977M55.938 27.426C55.902 27.559 55.902 27.703 55.926 27.836 55.957 27.996 56.012 28.137 56.09 28.258 56.027 28.258 55.957 28.258 55.895 28.281 55.715 28.316 55.559 28.406 55.438 28.527 55.414 28.484 55.402 28.426 55.391 28.371 55.324 27.949 55.559 27.523 55.938 27.426M55.402 30.094C55.281 29.961 55.203 29.793 55.168 29.594 55.082 29.082 55.379 28.594 55.824 28.492 56.004 28.449 56.172 28.484 56.324 28.559 55.758 28.805 55.379 29.418 55.402 30.094M56.035 27.758C55.957 27.313 56.215 26.883 56.602 26.793 56.668 26.781 56.738 26.77 56.805 26.781 56.438 27.102 56.238 27.637 56.324 28.172 56.324 28.215 56.34 28.258 56.348 28.293 56.191 28.18 56.07 27.996 56.035 27.758M58.27 29.395C58.27 29.395 58.074 30.395 57.547 30.797 57.547 30.797 57.781 30.539 57.883 30.008 57.395 30.316 56.602 30.137 56.602 30.137 56.602 30.137 57.781 30.129 57.941 29.172 58.094 28.215 57.004 27.668 57.004 27.668 57.004 27.668 57.949 27.715 58.195 28.781 58.25 28.672 58.383 28.461 58.66 28.293 58.66 28.293 58.406 28.66 58.27 29.395M57.949 35.801C56.547 36.258 57.234 37.594 57.234 37.594 56.492 36.348 57.148 35.859 57.148 35.859 56.547 35.613 56.18 36.27 56.18 36.27 56.484 35.414 57.141 35.387 57.141 35.387 56.57 34.934 56.727 34.223 56.727 34.223 56.828 35.012 57.305 35.09 57.305 35.09 57.328 33.543 58.461 33.621 58.461 33.621 56.859 34.289 57.949 35.801 57.949 35.801M56.625 40.285C56.602 40.418 56.594 40.551 56.617 40.695 56.648 40.852 56.703 40.996 56.781 41.109 56.715 41.109 56.648 41.117 56.582 41.129 56.402 41.176 56.246 41.262 56.125 41.387 56.105 41.34 56.09 41.285 56.082 41.23 56.012 40.797 56.246 40.383 56.625 40.285M56.09 42.941C55.98 42.82 55.895 42.652 55.859 42.453 55.77 41.941 56.07 41.441 56.512 41.34 56.695 41.305 56.859 41.328 57.016 41.406 56.449 41.664 56.07 42.273 56.09 42.941M56.727 40.617C56.648 40.172 56.906 39.738 57.293 39.652 57.359 39.629 57.426 39.629 57.496 39.629 57.125 39.961 56.926 40.484 57.016 41.027 57.027 41.074 57.027 41.109 57.039 41.152 56.883 41.039 56.758 40.852 56.727 40.617M58.996 42.195C58.996 42.195 58.793 43.199 58.27 43.598 58.27 43.598 58.508 43.344 58.594 42.809 58.105 43.117 57.328 42.941 57.328 42.941 57.328 42.941 58.508 42.93 58.66 41.977 58.816 41.02 57.73 40.461 57.73 40.461 57.73 40.461 58.672 40.52 58.918 41.582 58.973 41.473 59.105 41.262 59.383 41.094 59.383 41.094 59.121 41.465 58.996 42.195M64.547 44.543C64.813 43.164 63.5 42.965 63.5 42.965 63.926 41.707 63.031 41.063 63.031 41.063 64.09 41.684 63.855 42.695 63.855 42.695 64.223 42.73 64.633 42.164 64.633 42.164 64.434 42.832 64.078 42.875 64.078 42.875 65.012 43.543 64.547 44.543 64.547 44.543" fill="#ffffff"/>
</g>
<g clip-path="url(#clip_39)">
<path d="M5.141 22.785C5.563 23.367 6.008 24.23 6.406 25.281 6.539 25.047 6.684 24.867 6.809 24.777 6.852 24.742 6.91 24.734 6.996 24.734 6.598 23.664 6.051 22.809 5.359 22.375 5.266 22.309 4.949 22.23 4.594 22.195 4.773 22.34 4.949 22.531 5.141 22.785" fill="#ffffff"/>
</g>
<g clip-path="url(#clip_40)">
<path d="M6.879 26.617C7.145 27.469 7.637 28.996 7.828 29.965 7.727 28.617 7.355 26.836 7.238 26.059 7.125 26.223 7 26.414 6.879 26.617" fill="#ffffff"/>
</g>
<g clip-path="url(#clip_41)">
<path d="M8.5 27.137C8.477 27.547 8.457 27.957 8.457 28.348 8.625 27.805 8.813 27.266 9.012 26.766 9.813 23.965 11.059 21.473 12.07 20.25 12.367 19.895 12.648 19.637 12.906 19.484 12.84 19.469 12.25 19.637 12.125 19.68 10.227 20.316 9.09 23.965 8.5 27.137" fill="#ffffff"/>
</g>
<g clip-path="url(#clip_42)">
<path d="M8.352 29.336C8.352 29.16 8.316 27.922 8.305 27.246 8.297 26.957 8.305 26.656 8.328 26.367 8.742 21.672 10.285 16.098 11.879 13.688 9.273 15.91 8.203 21.07 7.949 24.988 7.918 26.313 8.051 29.258 8.051 29.258ZM8.352 29.336" fill="#ffffff"/>
</g>
<g clip-path="url(#clip_43)">
<path d="M5.539 27.586C5.609 27.375 5.66 27.164 5.73 26.973 5.285 26.297 4.852 25.793 4.52 25.582 4.285 25.441 4.031 25.371 3.75 25.383H3.727C4.293 25.875 4.93 26.641 5.539 27.586" fill="#ffffff"/>
</g>
<g clip-path="url(#clip_44)">
<path d="M5.918 28.207C6.344 28.93 7.523 31.008 7.855 31.867L7.863 31.52C7.543 30.52 6.621 28.527 6.188 27.75 6.086 27.918 6 28.074 5.918 28.207" fill="#ffffff"/>
</g>
<g clip-path="url(#clip_45)">
<path d="M8.512 28.887C8.512 29.051 8.465 29.664 8.52 29.652 9.523 26.672 11.59 23.727 13.09 22.57 13.07 22.57 13.047 22.559 13.023 22.559 12.691 22.57 12.383 22.645 12.113 22.805 11.066 23.402 9.289 25.992 8.512 28.887" fill="#ffffff"/>
</g>
<g clip-path="url(#clip_46)">
<path d="M8.602 30.535V31.234C9.246 29.758 10.66 27.164 11.371 26.488 11.184 26.508 11.004 26.555 10.848 26.664 10.316 27.02 9.262 28.555 8.602 30.535" fill="#ffffff"/>
</g>
<g clip-path="url(#clip_47)">
<path d="M11.301 26.246C11.199 26.297 11.109 26.379 11.02 26.465 11.375 26.344 11.84 26.398 12.355 26.531 12.844 26.668 13.324 26.887 13.777 27.203 13.945 27.313 14.113 27.445 14.242 27.566 14.242 27.566 13.734 26.633 12.691 26.223 12.176 26.055 11.68 26.035 11.301 26.246" fill="#ffffff"/>
</g>
<g clip-path="url(#clip_48)">
<path d="M7.609 26.523C7.734 27.406 7.832 28.52 7.898 29.586 7.91 29.816 7.922 30.063 7.922 30.309 7.91 28.164 7.777 26.07 7.621 25.492 7.578 25.516 7.531 25.559 7.465 25.613 7.508 25.848 7.566 26.16 7.609 26.523" fill="#ffffff"/>
</g>
<g clip-path="url(#clip_49)">
<path d="M5.648 28.176C6.496 26.742 7.219 25.676 7.598 25.219 7.574 25.074 7.551 24.973 7.543 24.926 7.406 24.895 7.25 24.875 7.141 24.875H7.086C6.707 25.152 6.105 26.418 5.617 28.23 5.629 28.211 5.637 28.199 5.648 28.176" fill="#ffffff"/>
</g>
<g clip-path="url(#clip_50)">
<path d="M8.668 42.289C8.75 42.266 8.852 42.258 8.926 42.234 9.027 42.223 9.105 42.211 9.172 42.211 9.082 41.664 9.035 41.32 9.027 41.246L8.984 40.723C8.969 40.52 8.938 40.195 8.926 40.008 8.852 40.02 8.625 40.051 8.449 40.043 8.473 40.496 8.504 40.969 8.516 41.078 8.523 41.207 8.582 41.652 8.668 42.289" fill="#ffffff"/>
</g>
<g clip-path="url(#clip_51)">
<path d="M9.41 47.375C9.484 47.355 9.578 47.348 9.664 47.332 9.789 47.309 9.875 47.301 9.941 47.301 9.797 46.332 9.641 45.301 9.496 44.363 9.418 43.875 9.352 43.43 9.285 43.016 9.242 43.027 9.199 43.039 9.141 43.051 8.988 43.074 8.875 43.086 8.785 43.086 8.918 44.02 9.086 45.141 9.242 46.199 9.297 46.598 9.352 47 9.41 47.375" fill="#ffffff"/>
</g>
<g clip-path="url(#clip_52)">
<path d="M8.898 39.555C8.848 38.844 8.723 37.465 8.68 36.918 8.57 36.93 8.426 36.949 8.301 36.941 8.324 37.574 8.402 38.91 8.434 39.512 8.457 39.512 8.781 39.555 8.898 39.555" fill="#ffffff"/>
</g>
<g clip-path="url(#clip_53)">
<path d="M8.68 36.445C8.625 36.445 8.48 36.457 8.336 36.48 8.281 36.488 8.246 36.504 8.227 36.504 8.227 36.547 8.234 36.625 8.246 36.668 8.313 36.668 8.48 36.668 8.637 36.645 8.668 36.633 8.691 36.633 8.703 36.625 8.703 36.582 8.691 36.488 8.68 36.445" fill="#ffffff"/>
</g>
<g clip-path="url(#clip_54)">
<path d="M8.891 39.875C8.922 39.875 8.941 39.863 8.965 39.863V39.785C8.754 39.738 8.555 39.707 8.367 39.695 8.355 39.754 8.375 39.852 8.387 39.898 8.477 39.906 8.711 39.906 8.891 39.875" fill="#ffffff"/>
</g>
<g clip-path="url(#clip_55)">
<path d="M9.109 42.777C9.207 42.766 9.277 42.746 9.32 42.734 9.32 42.668 9.297 42.531 9.266 42.48 9.23 42.48 9.117 42.488 8.973 42.512 8.82 42.531 8.719 42.555 8.676 42.566 8.66 42.625 8.688 42.746 8.719 42.813 8.773 42.813 8.922 42.813 9.109 42.777" fill="#ffffff"/>
</g>
<g clip-path="url(#clip_56)">
<path d="M8.461 29.945C8.395 29.945 8.219 29.957 8.059 29.922 8.051 30.324 8.035 30.723 8.035 30.813 8.027 30.922 8.035 31.324 8.059 31.867 8.125 31.859 8.203 31.848 8.281 31.848H8.473C8.449 31.379 8.438 31.066 8.438 31.004L8.449 30.559C8.449 30.391 8.461 30.113 8.461 29.945" fill="#ffffff"/>
</g>
<g clip-path="url(#clip_57)">
<path d="M8.512 32.547C8.477 32.547 8.43 32.559 8.375 32.559 8.25 32.559 8.152 32.559 8.082 32.547 8.117 33.359 8.164 34.324 8.207 35.25 8.219 35.605 8.23 35.938 8.25 36.27 8.309 36.262 8.387 36.262 8.453 36.262 8.563 36.25 8.641 36.25 8.695 36.25 8.652 35.418 8.609 34.516 8.563 33.703 8.539 33.293 8.531 32.891 8.512 32.547" fill="#ffffff"/>
</g>
<g clip-path="url(#clip_58)">
<path d="M8.031 29.797C8.098 29.816 8.285 29.828 8.445 29.828 8.465 29.816 8.488 29.816 8.508 29.816V29.75C8.344 29.695 8.176 29.652 8.02 29.617 8.02 29.676 8.02 29.75 8.031 29.797" fill="#ffffff"/>
</g>
<g clip-path="url(#clip_59)">
<path d="M8.281 32.086C8.156 32.086 8.07 32.094 8.035 32.105 8.012 32.152 8.023 32.262 8.047 32.32 8.09 32.328 8.211 32.328 8.367 32.328 8.457 32.328 8.516 32.32 8.547 32.305 8.559 32.262 8.547 32.137 8.527 32.086ZM8.281 32.086" fill="#ffffff"/>
</g>
<g clip-path="url(#clip_60)">
<path d="M9.84 47.883C9.941 47.852 10.027 47.816 10.059 47.805 10.059 47.75 10.039 47.629 10.016 47.563 9.973 47.563 9.852 47.574 9.695 47.605 9.504 47.629 9.406 47.66 9.383 47.672 9.383 47.695 9.426 47.895 9.461 47.949 9.527 47.961 9.66 47.941 9.84 47.883" fill="#ffffff"/>
</g>
<g clip-path="url(#clip_61)">
<path d="M12.48 38.746C12.137 38.613 11.805 38.578 11.488 38.648 11.48 38.656 11.457 38.656 11.438 38.668 11.379 38.715 11.336 38.766 11.277 38.836 12.492 38.613 13.227 39.871 13.227 39.871 13.141 39.48 12.949 38.926 12.48 38.746" fill="#ffffff"/>
</g>
<g clip-path="url(#clip_62)">
<path d="M11.34 38.586C9.805 39.574 9.258 42.066 9.316 42.066 9.316 42.066 9.547 41.844 9.461 43.199 9.906 40.332 10.809 39.309 11.34 38.586" fill="#ffffff"/>
</g>
<g clip-path="url(#clip_63)">
<path d="M4.012 42.563C5.289 43.105 7.137 44.508 8.625 46.375 8.762 46.422 8.879 46.453 9.004 46.5 7.637 44.363 5.668 42.738 4.758 42.52 4.496 42.461 4.258 42.473 4.012 42.563" fill="#ffffff"/>
</g>
<g clip-path="url(#clip_64)">
<path d="M10.289 48.387C10.313 48.473 10.332 48.555 10.348 48.641 10.602 46.816 12.102 44.012 12.102 44.012 11.703 44.5 10.535 45.66 10.289 48.387" fill="#ffffff"/>
</g>
<g clip-path="url(#clip_65)">
<path d="M9.109 46.348C8.934 45.48 8.766 44.566 8.676 43.832 8.645 43.535 8.621 43.285 8.598 43.098 8.543 43.066 8.496 43.055 8.465 43.055 8.441 43.488 8.73 44.945 9.145 46.504 9.133 46.445 9.121 46.402 9.109 46.348" fill="#ffffff"/>
</g>
<g clip-path="url(#clip_66)">
<path d="M7.918 46.715C8.543 46.727 8.668 46.816 9.145 46.781 7.555 46.047 5.285 45.691 3.781 46.691 3.34 46.984 3.016 47.383 2.805 47.895 2.914 47.785 3.039 47.684 3.172 47.582 4.262 46.871 6.25 46.684 7.918 46.715" fill="#ffffff"/>
</g>
<g clip-path="url(#clip_67)">
<path d="M4.57 30.645C4.551 30.633 4.512 30.633 4.492 30.633 4.023 30.723 3.578 30.945 3.156 31.313 2.422 31.926 1.824 32.883 1.344 33.914 1.656 33.695 3.781 31.402 4.938 30.855 4.816 30.746 4.68 30.668 4.57 30.645" fill="#ffffff"/>
</g>
<g clip-path="url(#clip_68)">
<path d="M7.262 35.254C7.539 36.113 7.797 37.059 7.992 38.027 7.871 36.656 7.738 35.445 7.605 34.68 7.492 34.855 7.383 35.043 7.262 35.254" fill="#ffffff"/>
</g>
<g clip-path="url(#clip_69)">
<path d="M5.059 30.617C5.625 31.082 6.395 32.672 6.918 34.141 7.051 33.66 7.34 33.238 7.406 33.23 7.027 32.172 6.457 31.191 5.813 30.781 5.703 30.715 5.348 30.637 5.059 30.617" fill="#ffffff"/>
</g>
<g clip-path="url(#clip_70)">
<path d="M13.859 30.355C13.836 29.965 13.77 29.578 13.648 29.219 13.313 28.285 12.855 27.539 12.258 27.395 12.164 27.395 12.078 27.461 11.969 27.582 12.434 27.895 12.777 28.375 13.059 28.93 13.203 29.219 13.313 29.52 13.391 29.84 13.504 30.332 13.656 31.133 13.656 31.813 13.656 31.813 13.914 31.535 13.859 30.355" fill="#ffffff"/>
</g>
<g clip-path="url(#clip_71)">
<path d="M11.488 27.434C9.98 28.625 9.121 32.918 8.801 36.277 8.809 36.477 8.824 36.668 8.832 36.867 8.953 36.223 9.102 35.59 9.27 34.988 9.844 31.941 10.824 29.137 11.637 27.844 11.793 27.59 11.938 27.402 12.078 27.258 11.824 27.289 11.582 27.371 11.488 27.434" fill="#ffffff"/>
</g>
<g clip-path="url(#clip_72)">
<path d="M5.09 34.016C5.492 34.473 5.934 35.195 6.344 36.098 6.414 35.875 6.469 35.66 6.523 35.461 6.234 34.816 5.934 34.359 5.691 34.16 5.594 34.094 5.477 34.039 5.367 34.016 5.277 34.004 5.191 34.004 5.09 34.016" fill="#ffffff"/>
</g>
<g clip-path="url(#clip_73)">
<path d="M6.602 36.676C6.668 36.844 7.957 39.254 8.191 40.145 8.012 38.977 7.168 37.074 6.832 36.195 6.754 36.371 6.668 36.531 6.602 36.676" fill="#ffffff"/>
</g>
<g clip-path="url(#clip_74)">
<path d="M5.488 33.875C5.434 33.832 5.379 33.785 5.324 33.754 3.926 32.84 1.352 34.82-.004 36.32 .387 36.125 .84 35.855 1.32 35.566 2.742 34.699 4.469 33.652 5.488 33.875" fill="#ffffff"/>
</g>
<g clip-path="url(#clip_75)">
<path d="M11.301 30.797C10.566 31.574 9.363 34.566 8.875 37.77 8.887 38.07 8.898 38.383 8.91 38.695 9.52 35.199 10.91 31.91 11.988 30.418 11.734 30.461 11.5 30.586 11.301 30.797" fill="#ffffff"/>
</g>
<g clip-path="url(#clip_76)">
<path d="M11.238 34.727C10.648 35.25 9.547 37.492 9.082 39.852 9.07 39.965 9.063 40.063 9.063 40.176 9.648 37.785 10.793 35.57 11.641 34.523 11.496 34.559 11.363 34.613 11.238 34.727" fill="#ffffff"/>
</g>
<g clip-path="url(#clip_77)">
<path d="M12.02 34.273C11.84 34.242 11.664 34.273 11.477 34.406 11.508 34.406 11.539 34.406 11.563 34.422 12.121 34.531 12.641 35.484 13.098 36.332 13.242 36.598 13.375 36.855 13.512 37.055 13.277 35.887 12.734 34.43 12.02 34.273" fill="#ffffff"/>
</g>
<g clip-path="url(#clip_78)">
<path d="M5.629 37.004C6.172 37.859 8.195 41.129 8.508 42.688 8.508 42.543 8.52 42.398 8.52 42.254 8.242 40.551 6.418 37.27 5.973 36.816 5.762 36.891 5.66 36.926 5.629 37.004" fill="#ffffff"/>
</g>
<g clip-path="url(#clip_79)">
<path d="M5.859 36.695C5.828 36.688 5.781 36.676 5.75 36.664 4.203 36.34 2.344 39.813 1.645 41.48 1.898 41.168 2.227 40.723 2.578 40.246 3.668 38.785 4.973 37.02 5.859 36.695" fill="#ffffff"/>
</g>
<g clip-path="url(#clip_80)">
<path d="M7.75 34.375C7.793 34.598 7.836 34.898 7.883 35.254 8.004 36.113 8.129 37.191 8.215 38.246 8.25 38.715 8.273 39.215 8.305 39.703 8.215 37.324 8.004 34.844 7.859 34.234 7.828 34.254 7.793 34.301 7.75 34.375" fill="#ffffff"/>
</g>
<g clip-path="url(#clip_81)">
<path d="M7.578 33.445C7.281 33.746 6.859 34.891 6.379 36.715 6.387 36.691 6.402 36.672 6.402 36.656 7.145 35.168 7.637 34.223 7.957 33.746 7.945 33.613 7.938 33.512 7.938 33.469 7.734 33.422 7.602 33.434 7.578 33.445" fill="#ffffff"/>
</g>
<g clip-path="url(#clip_82)">
<path d="M9.879 45.93C9.879 45.93 10.148 41.426 13.129 41.57 13.129 41.57 9.145 40.434 9.879 45.93" fill="#ffffff"/>
</g>
<g clip-path="url(#clip_83)">
<path d="M4.68 37.887C6.09 39.676 7.469 42.023 8.352 44.234 8.246 43.637 8.195 43.18 8.203 42.977 8.203 42.934 8.219 42.887 8.285 42.813 7.594 40.996 6.535 38.949 5.156 37.43 4.969 37.57 4.789 37.762 4.68 37.887" fill="#ffffff"/>
</g>
<g clip-path="url(#clip_84)">
<path d="M4.09 37.156C4.246 37.008 4.414 36.879 4.535 36.789 3.824 36.121 3.031 35.617 2.176 35.363 2.777 35.777 3.434 36.398 4.09 37.156" fill="#ffffff"/>
</g>
<g clip-path="url(#clip_85)">
<path d="M25.379 39.035C25.379 38.781 25.168 38.57 24.914 38.57 24.648 38.57 24.438 38.781 24.438 39.035V40.023H25.379ZM25.379 39.035" fill="#ffffff"/>
</g>
<g clip-path="url(#clip_86)">
<path d="M24.359 43.523C24.816 43.805 25.051 43.98 25.527 43.602 25.906 43.324 26.637 42.691 27.438 41.98L26.938 36.117H22.816L22.258 42.504C22.902 42.09 22.844 42.602 24.359 43.523M23.848 39.043C23.848 38.453 24.324 37.977 24.906 37.977 25.492 37.977 25.969 38.453 25.969 39.043V40.32C25.969 40.477 25.836 40.609 25.672 40.609H24.133C23.98 40.609 23.848 40.477 23.848 40.32ZM23.848 39.043" fill="#ffffff"/>
</g>
<g clip-path="url(#clip_87)">
<path d="M18.391 44.609C19.715 44.352 19.426 44.727 21.105 43.406 21.301 43.238 21.484 43.105 21.625 42.984L21.762 41.492C21.648 41.391 21.527 41.281 21.383 41.113 21.348 41.07 21.316 41.027 21.273 40.969 21.082 40.758 20.734 40.824 20.648 41.078 20.492 41.457 20.422 41.816 19.902 41.98 19.57 42.094 19.488 42.258 19.313 42.516 18.82 43.27 18.914 43.227 18.492 42.84 18.313 42.68 18.344 42.715 18.23 42.469 17.953 41.859 17.164 42.551 16.656 42.895 16.496 42.992 16.043 43.328 15.809 43.262 15.785 43.051 16.133 42.746 16.254 42.637 16.707 42.215 17.691 41.48 17.633 40.805 17.59 40.234 17.422 39.922 17.176 39.5 16.82 38.91 16.152 39.168 15.664 39.559 15.098 40.004 15.398 40.023 14.629 40.461 14.52 42.762 14.496 44.785 14.617 46.301 15.906 45.586 17.676 44.738 18.391 44.609" fill="#ffffff"/>
</g>
<g clip-path="url(#clip_88)">
<path d="M33.051 52.793C32.453 52.617 32.004 52.328 31.527 52.004 31.305 51.852 31.07 51.707 30.813 51.547V52.605C30.871 52.641 30.926 52.684 30.992 52.719 31.547 53.082 32.148 53.496 33.051 53.707ZM33.051 52.793" fill="#ffffff"/>
</g>
<g clip-path="url(#clip_89)">
<path d="M33.051 55.367C32.453 55.191 32.004 54.898 31.527 54.578 31.305 54.422 31.07 54.277 30.813 54.121V55.176C30.871 55.211 30.926 55.258 30.992 55.289 31.547 55.656 32.148 56.066 33.051 56.277ZM33.051 55.367" fill="#ffffff"/>
</g>
<g clip-path="url(#clip_90)">
<path d="M29.371 52.754C28.992 52.672 28.566 52.621 28.082 52.621 27.688 52.621 27.344 52.652 27.035 52.707V53.598C27.332 53.531 27.68 53.496 28.082 53.496 28.59 53.496 29.012 53.555 29.371 53.656ZM29.371 52.754" fill="#ffffff"/>
</g>
<g clip-path="url(#clip_91)">
<path d="M29.371 50.168C28.992 50.09 28.566 50.039 28.082 50.039 27.688 50.039 27.344 50.07 27.035 50.125V51.016C27.332 50.949 27.68 50.914 28.082 50.914 28.59 50.914 29.012 50.973 29.371 51.07ZM29.371 50.168" fill="#ffffff"/>
</g>
<g clip-path="url(#clip_92)">
<path d="M27.031 55.238V56.125C27.328 56.07 27.672 56.027 28.074 56.027 28.586 56.027 29.008 56.09 29.363 56.184V55.281C28.988 55.203 28.563 55.148 28.074 55.148 27.684 55.148 27.336 55.18 27.031 55.238" fill="#ffffff"/>
</g>
<g clip-path="url(#clip_93)">
<path d="M25.59 51.422C25.238 51.602 24.926 51.813 24.633 52 24.211 52.289 23.813 52.543 23.309 52.727V53.648C24.102 53.422 24.656 53.059 25.168 52.727 25.313 52.621 25.449 52.535 25.59 52.445ZM25.59 51.422" fill="#ffffff"/>
</g>
<g clip-path="url(#clip_94)">
<path d="M25.59 53.996C25.238 54.172 24.926 54.383 24.633 54.57 24.211 54.863 23.813 55.117 23.309 55.297V56.219C24.102 55.996 24.656 55.629 25.168 55.297 25.313 55.195 25.449 55.109 25.59 55.02ZM25.59 53.996" fill="#ffffff"/>
</g>
<g clip-path="url(#clip_95)">
<path d="M19.77 52.516C20.293 52.703 20.918 52.836 21.727 52.836H21.871V51.957H21.727C20.859 51.957 20.27 51.801 19.77 51.559ZM19.77 52.516" fill="#ffffff"/>
</g>
<g clip-path="url(#clip_96)">
<path d="M10.871 50.555C10.547 49.566 10.148 48.332 10.102 48.055 10.102 48.055 9.758 48.164 9.602 48.164 9.594 48.164 9.891 49.254 10.168 50.301ZM10.871 50.555" fill="#ffffff"/>
</g>
<g clip-path="url(#clip_97)">
<path d="M13.211 53.754C13.211 53.754 14.859 54.387 15.758 54.688 16.238 54.852 17.039 55.031 17.207 54.641 17.359 54.297 16.906 53.719 16.258 53.328 14.59 52.328 12.043 51.648 9.918 50.73 8.805 50.238 7.559 49.457 7.016 48.523L5.113 52.973C6 53.84 6.992 54.641 8.996 55.5 10.34 56.078 12.023 56.547 12.023 56.547ZM13.211 53.754" fill="#ffffff"/>
</g>
<g clip-path="url(#clip_98)">
<path d="M58.969 50.727C56.848 51.656 54.297 52.328 52.633 53.34 51.984 53.727 51.539 54.293 51.684 54.637 51.852 55.039 52.664 54.852 53.129 54.684 54.031 54.383 55.676 53.75 55.676 53.75L56.879 56.543C56.879 56.543 58.547 56.074 59.891 55.504 61.895 54.648 62.887 53.852 63.773 52.969L61.871 48.535C61.34 49.465 60.082 50.234 58.969 50.727" fill="#ffffff"/>
</g>
<g clip-path="url(#clip_99)">
<path d="M15.828 38.816C16.098 38.57 16.496 38.305 16.965 38.57 17.055 38.625 18.367 39.973 18.855 40.371 19.09 40.563 19.332 40.531 19.555 40.395 20.57 39.715 20.836 39.781 21.648 40.531 21.711 40.598 21.77 40.641 21.828 40.695L22.238 35.891 21.426 34.645V34.633H21.414C21.414 34.621 21.414 34.621 21.406 34.609V34.598C21.406 34.598 21.406 34.59 21.391 34.59V34.578C21.391 34.566 21.391 34.566 21.383 34.555V34.5C21.371 34.5 21.371 34.488 21.371 34.488V31.676C21.371 31.508 21.504 31.375 21.668 31.375H22.949C23.117 31.375 23.25 31.508 23.25 31.676V32.652H23.938V31.676C23.938 31.508 24.07 31.375 24.23 31.375H25.52C25.672 31.375 25.809 31.508 25.809 31.676V32.652H26.496V31.676C26.496 31.508 26.633 31.375 26.801 31.375H28.078C28.242 31.375 28.379 31.508 28.379 31.676V34.488C28.379 34.488 28.379 34.5 28.367 34.5V34.547C28.367 34.555 28.367 34.555 28.352 34.555V34.59C28.344 34.59 28.344 34.598 28.344 34.598V34.609C28.332 34.621 28.332 34.621 28.332 34.633H28.324V34.645L27.508 35.891 27.988 41.484C28.711 40.887 29.203 40.441 29.668 40.117 31.57 38.77 32.473 39.309 32.902 39.684 33.238 39.973 33.949 40.551 34.051 40.629V27.992C32.848 27.926 32.215 27.492 31.504 26.98 30.691 26.414 29.766 25.758 28 25.758 26.23 25.758 25.309 26.414 24.496 26.98 23.727 27.535 23.059 28.004 21.648 28.004 20.234 28.004 19.57 27.535 18.789 26.98 18.266 26.613 17.676 26.211 16.84 25.98 17.188 23 17.566 19.961 17.969 17.016 18.043 16.426 18.434 15.938 18.93 15.777 25.332 13.824 31.234 13.613 33.441 13.613 33.859 13.613 34.141 13.621 34.273 13.621H34.406C35.176 13.602 42.125 13.434 49.742 15.777 50.258 15.938 50.637 16.426 50.711 17.016 51.113 19.961 51.492 23 51.836 25.992 51.023 26.223 50.434 26.613 49.91 26.98 49.145 27.535 48.465 28.004 47.063 28.004 45.652 28.004 44.98 27.535 44.207 26.98 43.395 26.414 42.469 25.758 40.699 25.758 38.945 25.758 38.02 26.414 37.211 26.98 36.52 27.469 35.918 27.895 34.816 27.98V40.844C35.988 40.063 36.551 38.883 37.641 37.969 38.223 37.492 38.523 37.305 39.09 37.426 40.191 37.648 40.734 38.672 41.625 37.715 43.027 36.223 44.762 35.602 46.027 36.492L47.086 37.281 47.375 37.504C48.199 38.063 48.254 37.727 49.059 37.238 49.777 36.805 50.691 35.891 52.145 37.082L53.895 38.883C53.516 30.922 52.238 21.242 51.648 16.891 51.523 15.938 50.879 15.145 50.023 14.879 42.25 12.488 35.16 12.656 34.387 12.676H34.293C33.516 12.656 26.43 12.488 18.668 14.879 17.801 15.145 17.168 15.938 17.031 16.891 16.465 21.129 15.086 31.887 14.664 39.797 14.918 39.617 15.172 39.426 15.422 39.184 15.574 39.004 15.664 38.973 15.828 38.816" fill="#ffffff"/>
</g>
<g clip-path="url(#clip_100)">
<path d="M22.578 59.398C22.414 59.367 22.281 59.398 22.172 59.477 22.059 59.555 21.992 59.676 21.969 59.82 21.938 59.965 21.957 60.098 22.039 60.223 22.102 60.336 22.227 60.41 22.395 60.445 22.559 60.469 22.691 60.445 22.805 60.367 22.914 60.277 22.98 60.168 23.004 60.012 23.027 59.867 23.004 59.734 22.934 59.609 22.859 59.5 22.746 59.434 22.578 59.398" fill="#ffffff"/>
</g>
<g clip-path="url(#clip_101)">
<path d="M43.777 59.828C43.664 59.84 43.547 59.863 43.434 59.871 43.453 60.027 43.477 60.184 43.496 60.34 43.609 60.32 43.734 60.305 43.844 60.285 43.926 60.273 43.988 60.25 44.035 60.207 44.086 60.16 44.102 60.094 44.086 60.016 44.078 59.941 44.043 59.883 43.988 59.848 43.934 59.828 43.855 59.816 43.777 59.828" fill="#ffffff"/>
</g>
<g clip-path="url(#clip_102)">
<path d="M40.668 60.199C40.57 60.211 40.48 60.223 40.383 60.223 40.391 60.387 40.414 60.543 40.426 60.711 40.527 60.699 40.613 60.691 40.711 60.676 40.938 60.656 41.047 60.566 41.035 60.41 41.016 60.246 40.895 60.176 40.668 60.199" fill="#ffffff"/>
</g>
<g clip-path="url(#clip_103)">
<path d="M37.43 60.41C37.262 60.422 37.141 60.473 37.051 60.574 36.961 60.676 36.914 60.809 36.926 60.953 36.926 61.109 36.984 61.23 37.07 61.332 37.172 61.434 37.305 61.477 37.473 61.465 37.641 61.457 37.773 61.398 37.859 61.297 37.941 61.188 37.984 61.063 37.973 60.91 37.973 60.766 37.918 60.633 37.816 60.539 37.727 60.441 37.598 60.398 37.43 60.41" fill="#ffffff"/>
</g>
<g clip-path="url(#clip_104)">
<path d="M34.02 60.488H33.73V60.969C33.82 60.969 33.918 60.977 34.02 60.977 34.242 60.977 34.367 60.891 34.352 60.734 34.367 60.57 34.242 60.488 34.02 60.488" fill="#ffffff"/>
</g>
<g clip-path="url(#clip_105)">
<path d="M35.668 60.48H35.324V60.945H35.684C35.758 60.945 35.824 60.926 35.879 60.879 35.938 60.848 35.961 60.781 35.961 60.703 35.961 60.625 35.926 60.57 35.871 60.539 35.824 60.492 35.758 60.48 35.668 60.48" fill="#ffffff"/>
</g>
<g clip-path="url(#clip_106)">
<path d="M20.871 59.059C20.758 59.035 20.645 59.016 20.535 58.992 20.512 59.117 20.477 59.234 20.457 59.359 20.566 59.379 20.691 59.402 20.813 59.438 20.879 59.445 20.934 59.438 20.988 59.414 21.035 59.395 21.066 59.359 21.082 59.293 21.102 59.168 21.035 59.09 20.871 59.059" fill="#ffffff"/>
</g>
<g clip-path="url(#clip_107)">
<path d="M18.539 58.543C18.453 58.523 18.363 58.5 18.285 58.48 18.195 58.813 18.109 59.145 18.027 59.469 18.117 59.492 18.207 59.523 18.297 59.535 18.461 59.578 18.598 59.566 18.707 59.512 18.809 59.445 18.887 59.332 18.918 59.168 18.961 59 18.953 58.867 18.887 58.766 18.816 58.656 18.707 58.59 18.539 58.543" fill="#ffffff"/>
</g>
<g clip-path="url(#clip_108)">
<path d="M20.77 59.699C20.645 59.676 20.523 59.641 20.391 59.621 20.367 59.754 20.336 59.898 20.301 60.031 20.426 60.055 20.547 60.09 20.668 60.113 20.758 60.133 20.836 60.133 20.891 60.113 20.957 60.098 20.988 60.043 21.012 59.965 21.039 59.82 20.957 59.742 20.77 59.699" fill="#ffffff"/>
</g>
<g clip-path="url(#clip_109)">
<path d="M16.891 58.129C16.867 58.172 16.844 58.207 16.824 58.242 16.688 58.41 16.57 58.586 16.434 58.754 16.613 58.797 16.789 58.855 16.969 58.898 16.934 58.688 16.91 58.477 16.891 58.266ZM16.891 58.129" fill="#ffffff"/>
</g>
<g clip-path="url(#clip_110)">
<path d="M34.449 58.578C27.438 58.563 20.441 57.375 13.758 55.027 13.004 56.805 12.246 58.43 11.633 60.078 18.645 62.535 26.551 63.781 34.438 63.762H34.457C42.348 63.781 50.254 62.535 57.262 60.078 56.648 58.43 55.895 56.805 55.141 55.027 48.449 57.375 41.453 58.563 34.449 58.578M17.043 59.543C17.027 59.43 17.008 59.32 16.996 59.211 16.75 59.145 16.496 59.078 16.242 59 16.172 59.086 16.109 59.176 16.039 59.266 15.918 59.23 15.797 59.188 15.672 59.152 16.051 58.699 16.418 58.23 16.785 57.762 16.918 57.797 17.043 57.828 17.164 57.863 17.238 58.453 17.32 59.043 17.406 59.633 17.289 59.598 17.164 59.566 17.043 59.543M19.277 59.254C19.219 59.5 19.109 59.668 18.918 59.777 18.742 59.887 18.496 59.91 18.219 59.844 18.008 59.785 17.797 59.734 17.598 59.688 17.73 59.152 17.863 58.621 18.008 58.086 18.207 58.141 18.41 58.199 18.609 58.242 18.887 58.309 19.086 58.43 19.199 58.621 19.313 58.797 19.332 59.008 19.277 59.254M21.324 59.785C21.379 59.867 21.391 59.965 21.367 60.078 21.344 60.164 21.313 60.23 21.258 60.289 21.211 60.344 21.145 60.375 21.066 60.391 21 60.41 20.922 60.422 20.844 60.422 20.777 60.422 20.703 60.41 20.609 60.391 20.379 60.344 20.133 60.289 19.887 60.23 20.012 59.699 20.133 59.168 20.246 58.629 20.492 58.676 20.723 58.73 20.965 58.789 21.145 58.82 21.277 58.887 21.359 58.977 21.445 59.066 21.48 59.176 21.445 59.309 21.41 59.488 21.301 59.59 21.125 59.609 21.211 59.656 21.277 59.711 21.324 59.785M23.258 60.391C23.203 60.477 23.137 60.555 23.047 60.621 22.969 60.688 22.859 60.734 22.734 60.766 22.613 60.789 22.48 60.789 22.336 60.766 22.191 60.734 22.07 60.688 21.957 60.621 21.848 60.555 21.766 60.477 21.715 60.375 21.656 60.289 21.613 60.188 21.602 60.078 21.578 59.977 21.578 59.867 21.602 59.754 21.621 59.641 21.668 59.543 21.723 59.445 21.781 59.355 21.848 59.277 21.934 59.211 22.023 59.145 22.125 59.098 22.246 59.078 22.371 59.051 22.5 59.051 22.648 59.078 22.781 59.109 22.902 59.152 23.012 59.219 23.113 59.289 23.191 59.363 23.258 59.453 23.316 59.543 23.348 59.641 23.371 59.754 23.391 59.852 23.391 59.965 23.371 60.078 23.359 60.188 23.316 60.289 23.258 60.391M24.984 61.156C24.875 61.145 24.758 61.125 24.648 61.113 24.438 60.723 24.227 60.324 24.023 59.934 24.023 60 24.016 60.066 24.004 60.156 23.957 60.434 23.914 60.711 23.871 60.988 23.746 60.965 23.625 60.957 23.504 60.934 23.594 60.391 23.68 59.852 23.77 59.309 23.883 59.32 23.992 59.34 24.102 59.363 24.305 59.754 24.504 60.156 24.715 60.543 24.715 60.477 24.727 60.398 24.738 60.324 24.781 60.043 24.824 59.754 24.863 59.477 24.984 59.5 25.105 59.508 25.215 59.531 25.137 60.078 25.059 60.609 24.984 61.156M26.883 60.777C26.883 60.879 26.863 60.957 26.82 61.023 26.785 61.102 26.738 61.156 26.688 61.199 26.637 61.242 26.574 61.277 26.508 61.301 26.441 61.324 26.363 61.344 26.293 61.344 26.23 61.344 26.152 61.344 26.074 61.336 25.996 61.336 25.918 61.313 25.852 61.289 25.785 61.27 25.719 61.234 25.66 61.199 25.594 61.156 25.551 61.113 25.508 61.055 25.473 61 25.438 60.934 25.43 60.855 25.406 60.777 25.406 60.688 25.418 60.598 25.461 60.254 25.508 59.922 25.559 59.574 25.676 59.59 25.793 59.609 25.906 59.621 25.859 59.953 25.816 60.289 25.785 60.621 25.75 60.855 25.859 60.988 26.105 61.023 26.363 61.055 26.508 60.957 26.539 60.723 26.574 60.391 26.617 60.055 26.652 59.723 26.773 59.734 26.883 59.742 27.008 59.754 26.965 60.098 26.93 60.445 26.883 60.777M29.012 61.613C28.887 61.598 28.766 61.59 28.641 61.578 28.664 61.242 28.699 60.902 28.734 60.566 28.566 60.777 28.398 60.98 28.219 61.191 28.152 61.176 28.086 61.168 28.008 61.168 27.887 60.934 27.766 60.703 27.629 60.469 27.598 60.797 27.563 61.133 27.531 61.469 27.41 61.457 27.285 61.445 27.164 61.434 27.227 60.891 27.285 60.344 27.34 59.797 27.453 59.809 27.563 59.82 27.676 59.832 27.832 60.133 27.996 60.434 28.164 60.746 28.375 60.477 28.598 60.211 28.809 59.945 28.922 59.945 29.031 59.953 29.141 59.965 29.098 60.512 29.055 61.055 29.012 61.613M31.18 60.41C30.902 60.398 30.633 60.375 30.355 60.367 30.355 60.477 30.344 60.598 30.336 60.711 30.59 60.734 30.832 60.746 31.09 60.754 31.078 60.855 31.078 60.965 31.066 61.066 30.824 61.055 30.566 61.031 30.32 61.023 30.313 61.145 30.301 61.27 30.301 61.387 30.578 61.402 30.855 61.422 31.137 61.434 31.137 61.535 31.137 61.645 31.121 61.746 30.723 61.723 30.313 61.703 29.914 61.68 29.941 61.125 29.988 60.578 30.023 60.031 30.41 60.055 30.801 60.078 31.188 60.098 31.188 60.199 31.18 60.309 31.18 60.41M32.715 60.477C32.535 60.469 32.367 60.469 32.191 60.469 32.18 60.902 32.168 61.344 32.145 61.789 32.023 61.789 31.914 61.781 31.789 61.781 31.801 61.336 31.824 60.891 31.836 60.445 31.668 60.445 31.5 60.434 31.324 60.422 31.332 60.324 31.332 60.211 31.344 60.113 31.801 60.133 32.258 60.141 32.715 60.156ZM34.004 61.289C33.918 61.289 33.824 61.289 33.727 61.277V61.824H33.359C33.371 61.27 33.379 60.723 33.379 60.18H34.016C34.492 60.188 34.727 60.367 34.738 60.734 34.738 61.102 34.492 61.289 34.004 61.289M36.074 61.813C35.918 61.621 35.762 61.434 35.605 61.242H35.34C35.34 61.434 35.352 61.633 35.352 61.824H34.98C34.973 61.277 34.973 60.734 34.973 60.18 35.191 60.18 35.426 60.18 35.648 60.164 35.738 60.164 35.816 60.18 35.895 60.188 35.973 60.211 36.039 60.23 36.105 60.266 36.172 60.309 36.227 60.367 36.262 60.434 36.305 60.512 36.328 60.586 36.328 60.688 36.34 60.945 36.219 61.113 35.973 61.191 36.152 61.387 36.32 61.598 36.496 61.801 36.352 61.801 36.219 61.801 36.074 61.813M38.309 61.211C38.273 61.324 38.23 61.41 38.152 61.5 38.086 61.578 37.996 61.645 37.887 61.703 37.762 61.758 37.641 61.789 37.484 61.789 37.34 61.801 37.207 61.781 37.098 61.734 36.973 61.703 36.875 61.633 36.797 61.555 36.719 61.48 36.664 61.387 36.629 61.289 36.586 61.191 36.563 61.09 36.551 60.965 36.551 60.855 36.574 60.754 36.605 60.645 36.641 60.543 36.684 60.457 36.762 60.367 36.828 60.289 36.918 60.223 37.027 60.164 37.141 60.121 37.273 60.09 37.406 60.078 37.551 60.078 37.688 60.09 37.797 60.133 37.922 60.18 38.02 60.23 38.086 60.309 38.164 60.391 38.23 60.477 38.273 60.578 38.32 60.668 38.344 60.777 38.344 60.891 38.352 61 38.344 61.113 38.309 61.211M39.82 61.387C39.785 61.457 39.742 61.512 39.688 61.555 39.633 61.59 39.566 61.621 39.488 61.645 39.41 61.668 39.32 61.691 39.23 61.691 39 61.715 38.773 61.668 38.586 61.59 38.586 61.48 38.574 61.359 38.574 61.242 38.754 61.359 38.965 61.402 39.188 61.379 39.398 61.367 39.5 61.313 39.488 61.199 39.488 61.156 39.453 61.125 39.41 61.09 39.363 61.055 39.297 61.031 39.23 61.012 39.164 61 39.086 60.98 39.008 60.957 38.922 60.922 38.84 60.902 38.773 60.867 38.707 60.832 38.652 60.789 38.598 60.723 38.543 60.656 38.52 60.578 38.52 60.488 38.512 60.344 38.555 60.223 38.664 60.133 38.773 60.043 38.922 60 39.102 59.988 39.297 59.965 39.488 60 39.641 60.066 39.656 60.18 39.656 60.289 39.664 60.398 39.523 60.309 39.344 60.277 39.145 60.289 38.965 60.309 38.875 60.367 38.875 60.469 38.887 60.512 38.91 60.543 38.953 60.578 39 60.598 39.066 60.621 39.133 60.645 39.199 60.656 39.277 60.68 39.355 60.703 39.441 60.723 39.508 60.754 39.59 60.777 39.656 60.813 39.719 60.855 39.766 60.922 39.82 60.988 39.844 61.066 39.852 61.156 39.867 61.242 39.852 61.324 39.82 61.387M40.734 60.988C40.633 61 40.543 61.012 40.457 61.012 40.465 61.199 40.488 61.379 40.5 61.555 40.379 61.57 40.254 61.578 40.145 61.59 40.09 61.043 40.043 60.488 40 59.945 40.211 59.934 40.422 59.91 40.621 59.887 41.102 59.844 41.355 60 41.402 60.367 41.434 60.734 41.211 60.945 40.734 60.988M41.758 61.434C41.699 60.891 41.637 60.344 41.578 59.797 41.969 59.754 42.355 59.711 42.746 59.656 42.758 59.754 42.77 59.867 42.777 59.965 42.516 60 42.234 60.031 41.969 60.066 41.977 60.18 41.992 60.301 42.012 60.41 42.254 60.375 42.5 60.355 42.758 60.324 42.77 60.422 42.777 60.523 42.793 60.621 42.547 60.656 42.289 60.688 42.043 60.723 42.059 60.832 42.066 60.957 42.078 61.078 42.367 61.043 42.648 61.012 42.926 60.98 42.938 61.078 42.945 61.191 42.969 61.289 42.559 61.336 42.156 61.387 41.758 61.434M44.336 61.102C44.16 60.934 43.98 60.766 43.805 60.586 43.715 60.609 43.625 60.621 43.535 60.633 43.57 60.82 43.594 61.012 43.613 61.199 43.492 61.223 43.367 61.234 43.258 61.242 43.18 60.711 43.113 60.164 43.035 59.621 43.27 59.59 43.492 59.555 43.715 59.523 43.805 59.508 43.879 59.508 43.957 59.523 44.035 59.523 44.117 59.543 44.184 59.566 44.25 59.598 44.313 59.641 44.359 59.711 44.402 59.777 44.438 59.852 44.461 59.953 44.496 60.199 44.395 60.391 44.16 60.5 44.359 60.68 44.559 60.855 44.758 61.031 44.613 61.055 44.48 61.078 44.336 61.102M44.961 61C44.867 60.457 44.793 59.922 44.707 59.379 44.816 59.355 44.941 59.34 45.059 59.32 45.152 59.867 45.238 60.398 45.328 60.945 45.203 60.965 45.082 60.988 44.961 61M46.418 60.754C46.293 60.777 46.172 60.797 46.051 60.82 45.973 60.391 45.906 59.945 45.828 59.508 45.648 59.543 45.48 59.566 45.316 59.598 45.293 59.5 45.281 59.387 45.262 59.289 45.719 59.211 46.172 59.133 46.629 59.043 46.641 59.145 46.66 59.254 46.684 59.355 46.52 59.387 46.34 59.422 46.172 59.453 46.25 59.887 46.328 60.324 46.418 60.754M48.152 60.422C48.098 60.324 48.031 60.23 47.977 60.141 47.719 60.199 47.461 60.242 47.207 60.301 47.184 60.398 47.16 60.512 47.141 60.621 47.016 60.645 46.898 60.668 46.773 60.688 46.898 60.113 47.016 59.531 47.141 58.941 47.262 58.922 47.387 58.898 47.52 58.867 47.852 59.363 48.188 59.852 48.531 60.344 48.406 60.367 48.285 60.391 48.152 60.422M49.242 60.188C49.121 60.211 48.996 60.23 48.887 60.266 48.785 59.832 48.699 59.398 48.598 58.965 48.43 59 48.262 59.043 48.098 59.078 48.074 58.965 48.051 58.867 48.031 58.766 48.473 58.664 48.93 58.563 49.375 58.465 49.398 58.563 49.434 58.664 49.453 58.773 49.289 58.809 49.121 58.855 48.945 58.887 49.043 59.32 49.141 59.754 49.242 60.188M49.965 60.02C49.832 59.488 49.707 58.941 49.586 58.41 49.965 58.32 50.344 58.23 50.734 58.133 50.758 58.23 50.777 58.332 50.813 58.43 50.547 58.496 50.277 58.563 50.012 58.629 50.031 58.742 50.066 58.855 50.086 58.977 50.332 58.91 50.578 58.855 50.824 58.789 50.844 58.887 50.875 58.984 50.902 59.086 50.656 59.152 50.41 59.211 50.164 59.277 50.188 59.387 50.223 59.508 50.242 59.633 50.523 59.566 50.801 59.488 51.078 59.422 51.102 59.523 51.121 59.621 51.156 59.723 50.758 59.82 50.355 59.922 49.965 60.02M52.879 59.254C52.781 58.934 52.688 58.609 52.602 58.285 52.512 58.531 52.434 58.789 52.348 59.043 52.281 59.066 52.199 59.078 52.133 59.098 51.938 58.922 51.734 58.754 51.535 58.578 51.625 58.898 51.703 59.23 51.789 59.555 51.676 59.59 51.559 59.621 51.434 59.656 51.301 59.121 51.156 58.586 51.023 58.051 51.121 58.031 51.234 57.996 51.348 57.973 51.602 58.199 51.855 58.418 52.125 58.641 52.234 58.32 52.348 57.996 52.445 57.664 52.559 57.641 52.668 57.609 52.77 57.574 52.926 58.098 53.082 58.629 53.227 59.152 53.113 59.188 52.992 59.219 52.879 59.254" fill="#ffffff"/>
</g>
<g clip-path="url(#clip_111)">
<path d="M47.391 59.23C47.391 59.273 47.391 59.316 47.375 59.359 47.344 59.574 47.301 59.773 47.258 59.984 47.441 59.953 47.621 59.914 47.801 59.883 47.68 59.703 47.566 59.527 47.441 59.348 47.418 59.305 47.398 59.273 47.391 59.23" fill="#ffffff"/>
</g>
<g clip-path="url(#clip_112)">
<path d="M34.809 66.238V64.426C34.555 64.426 34.297 64.414 34.043 64.414V66.273C33.074 66.137 31.742 65.395 30.215 64.27 29.625 64.238 29.051 64.191 28.496 64.148 30.805 65.992 32.91 67.242 34.332 67.242 35.734 67.242 37.801 66.039 40.07 64.227 39.504 64.27 38.926 64.301 38.371 64.336 36.98 65.348 35.734 66.051 34.809 66.238" fill="#ffffff"/>
</g>
<g clip-path="url(#clip_113)">
<path d="M43.738 42.301C42.996 42.512 42.914 42.047 43.473 41.719 44.387 41.164 45.008 40.465 45.551 39.73 46.266 38.797 46.285 37.203 44.285 37.617 43.242 37.84 42.727 38.473 42.094 38.996 40.914 39.977 39.336 42.547 37.965 42.91 37.766 42.969 37.613 42.723 37.754 42.555 39.645 40.43 39.258 38.363 37.469 39.508 37.234 39.664 37.023 39.84 36.836 40.043 36.043 40.852 35.699 41.379 34.816 41.813V50.695C36.289 50.586 37.121 50.008 37.855 49.484 38.633 48.941 39.301 48.473 40.715 48.473 42.129 48.473 42.793 48.941 43.563 49.484 44.371 50.063 45.297 50.719 47.066 50.719 48.832 50.719 49.758 50.063 50.566 49.484 51.18 49.063 51.727 48.672 52.641 48.527 52.336 49.164 51.883 49.93 51.293 50.789 50.777 51.008 50.355 51.297 49.969 51.578 49.191 52.133 48.5 52.609 47.066 52.609 45.621 52.609 44.941 52.133 44.152 51.578 43.352 51.008 42.449 50.367 40.715 50.367 38.977 50.367 38.066 51.008 37.266 51.578 36.566 52.066 35.953 52.5 34.816 52.59V50.707H34.055V57.836C34.309 57.836 34.563 57.852 34.816 57.852V56.25C36.254 56.148 37.074 55.582 37.797 55.07 38.59 54.512 39.266 54.035 40.715 54.035 42.148 54.035 42.828 54.512 43.617 55.07 44.395 55.617 45.285 56.238 46.918 56.27 46.754 56.449 46.578 56.637 46.41 56.816 46.941 56.715 47.465 56.605 47.988 56.48 50.828 53.234 53.086 50.086 53.707 48.406 54.129 47.262 54.215 44.758 54.105 41.602 51.805 40.422 50.434 41.488 50.434 41.488 49.68 41.957 48.668 42.578 47.934 42.68 47.711 42.711 47.59 42.422 47.777 42.289 49.035 41.367 50.535 38.461 49.09 38.496 48.164 38.516 45.777 41.711 43.738 42.301M47.766 55.289C47.555 55.324 47.32 55.348 47.066 55.348 45.621 55.348 44.941 54.859 44.152 54.313 43.352 53.746 42.449 53.102 40.715 53.102 38.977 53.102 38.066 53.746 37.266 54.301 36.566 54.801 35.953 55.223 34.816 55.324V53.523C36.254 53.41 37.074 52.844 37.797 52.332 38.59 51.777 39.266 51.297 40.715 51.297 42.148 51.297 42.828 51.777 43.617 52.332 44.422 52.902 45.332 53.547 47.066 53.547 48.332 53.547 49.156 53.199 49.824 52.789 49.199 53.602 48.512 54.438 47.766 55.289" fill="#ffffff"/>
</g>
<g clip-path="url(#clip_114)">
<path d="M37.258 57.039C36.801 57.363 36.379 57.652 35.824 57.84 36.48 57.84 37.137 57.82 37.805 57.797 38.594 57.238 39.27 56.762 40.703 56.762 41.754 56.762 42.398 57.02 42.977 57.375 43.434 57.32 43.898 57.25 44.355 57.172 44.289 57.129 44.223 57.086 44.152 57.039 43.355 56.473 42.441 55.84 40.703 55.84 38.973 55.84 38.059 56.473 37.258 57.039" fill="#ffffff"/>
</g>
<g clip-path="url(#clip_115)">
<path d="M34.051 41.738C33.883 41.582 33.672 41.402 33.262 41.094 32.328 40.406 31.738 39.902 30.793 40.426 30.645 40.504 30.504 40.617 30.371 40.738 29.898 41.141 28.434 42.43 25.965 44.555 24.953 45.422 24.074 46.277 22.438 46.867 20.289 47.656 24.051 43.918 22.602 43.262 22.094 43.273 21.703 43.797 21.469 44.063 19.188 46.512 18.891 44.809 17.188 45.512 17.063 46.277 18.367 47 16.32 46.566 15.883 46.477 15.262 46.699 14.672 46.922 14.738 47.535 14.84 48.043 14.973 48.414 15.598 50.082 17.832 53.195 20.645 56.422 20.855 56.465 21.379 56.578 22.172 56.711 21.672 56.156 21.191 55.609 20.715 55.055 21.059 55.109 21.438 55.145 21.867 55.133V54.254C21.824 54.254 21.773 54.262 21.727 54.262 20.855 54.262 20.266 54.094 19.77 53.852V53.918C18.031 51.809 16.664 49.859 16.051 48.523 16.965 48.668 17.535 49.059 18.145 49.492 18.957 50.059 19.879 50.715 21.648 50.715 23.418 50.715 24.34 50.059 25.152 49.492 25.922 48.945 26.586 48.469 28 48.469 29.41 48.469 30.078 48.945 30.859 49.492 31.613 50.023 32.48 50.625 34.051 50.707ZM34.051 41.738" fill="#ffffff"/>
</g>
<g clip-path="url(#clip_116)">
<path d="M30.809 57.715C31.422 57.75 32.043 57.785 32.676 57.805 32.254 57.625 31.898 57.395 31.516 57.152 31.297 56.992 31.063 56.848 30.809 56.695ZM30.809 57.715" fill="#ffffff"/>
</g>
<g clip-path="url(#clip_117)">
<path d="M25.59 57.234V56.563C25.258 56.742 24.969 56.93 24.691 57.109 24.977 57.152 25.281 57.188 25.59 57.234" fill="#ffffff"/>
</g>
</g>
</svg>
