<svg width="26" height="23" viewBox="0 0 26 23" fill="none" xmlns="http://www.w3.org/2000/svg">
<path d="M13.1702 22.9162C11.7125 22.9162 10.347 22.6392 9.07389 22.0853C7.80077 21.5313 6.69286 20.783 5.75016 19.8403C4.80747 18.8976 4.05915 17.7897 3.50519 16.5166C2.95124 15.2435 2.67426 13.878 2.67426 12.4202C2.67426 10.9625 2.95124 9.59701 3.50519 8.32389C4.05915 7.05077 4.80747 5.94286 5.75016 5.00016C6.69286 4.05747 7.80077 3.30915 9.07389 2.75519C10.347 2.20124 11.7125 1.92426 13.1702 1.92426C14.628 1.92426 15.9935 2.20124 17.2666 2.75519C18.5397 3.30915 19.6476 4.05747 20.5903 5.00016C21.533 5.94286 22.2813 7.05077 22.8353 8.32389C23.3892 9.59701 23.6662 10.9625 23.6662 12.4202C23.6662 13.878 23.3892 15.2435 22.8353 16.5166C22.2813 17.7897 21.533 18.8976 20.5903 19.8403C19.6476 20.783 18.5397 21.5313 17.2666 22.0853C15.9935 22.6392 14.628 22.9162 13.1702 22.9162ZM16.4356 17.3184L18.0684 15.6856L14.3365 11.9537V6.58914H12.004V12.8867L16.4356 17.3184ZM5.70643 0L7.33914 1.63271L2.38271 6.58914L0.75 4.95643L5.70643 0ZM20.634 0L25.5905 4.95643L23.9578 6.58914L19.0013 1.63271L20.634 0ZM13.1702 20.5838C15.4444 20.5838 17.3735 19.7917 18.9576 18.2076C20.5417 16.6235 21.3338 14.6944 21.3338 12.4202C21.3338 10.1461 20.5417 8.21699 18.9576 6.63287C17.3735 5.04876 15.4444 4.2567 13.1702 4.2567C10.8961 4.2567 8.96699 5.04876 7.38287 6.63287C5.79876 8.21699 5.0067 10.1461 5.0067 12.4202C5.0067 14.6944 5.79876 16.6235 7.38287 18.2076C8.96699 19.7917 10.8961 20.5838 13.1702 20.5838Z" fill="#2C3E50"/>
</svg>
