<svg width="23" height="19" viewBox="0 0 23 19" fill="none" xmlns="http://www.w3.org/2000/svg">
<path d="M2 7.90039L1.29289 8.6075L0.585785 7.90039L1.29289 7.19328L2 7.90039ZM23 17.9004C23 18.4527 22.5523 18.9004 22 18.9004C21.4477 18.9004 21 18.4527 21 17.9004L23 17.9004ZM7.54289 14.8575L1.29289 8.6075L2.70711 7.19328L8.95711 13.4433L7.54289 14.8575ZM1.29289 7.19328L7.54289 0.943283L8.95711 2.3575L2.70711 8.6075L1.29289 7.19328ZM2 6.90039L16 6.90039L16 8.90039L2 8.90039L2 6.90039ZM23 13.9004L23 17.9004L21 17.9004L21 13.9004L23 13.9004ZM16 6.90039C19.866 6.90039 23 10.0344 23 13.9004L21 13.9004C21 11.139 18.7614 8.90039 16 8.90039L16 6.90039Z" fill="white"/>
</svg>
