<svg width="18" height="18" viewBox="0 0 18 18" fill="none" xmlns="http://www.w3.org/2000/svg">
<path fill-rule="evenodd" clip-rule="evenodd" d="M14.2038 7.79595L15.9998 5.99994C16.545 5.45469 16.8176 5.18207 16.9634 4.88797C17.2407 4.32842 17.2407 3.67146 16.9634 3.11191C16.8176 2.81782 16.545 2.54519 15.9998 1.99994C15.4545 1.45469 15.1819 1.18207 14.8878 1.03633C14.3282 0.759048 13.6713 0.759048 13.1117 1.03633C12.8176 1.18207 12.545 1.45469 11.9998 1.99994L10.1811 3.8186C11.145 5.4692 12.5311 6.84476 14.2038 7.79595ZM8.72666 5.27305L1.85615 12.1436C1.43109 12.5686 1.21856 12.7812 1.07883 13.0422C0.939091 13.3033 0.880146 13.5981 0.762256 14.1875L0.14686 17.2645C0.0803376 17.5971 0.0470765 17.7634 0.141684 17.858C0.236293 17.9526 0.402598 17.9194 0.735208 17.8529L3.81219 17.2375C4.40164 17.1196 4.69637 17.0606 4.95746 16.9209C5.21856 16.7812 5.43109 16.5686 5.85615 16.1436L12.7456 9.25416C11.1239 8.23851 9.7522 6.87622 8.72666 5.27305Z" fill="#95A5A6"/>
</svg>
