<svg width="26" height="26" viewBox="0 0 26 26" fill="none" xmlns="http://www.w3.org/2000/svg">
<circle cx="13" cy="13" r="12" fill="white" stroke="#FF9842" stroke-width="2"/>
<path d="M14.5043 14.1229H11.4786L11.0684 7H14.9145L14.5043 14.1229ZM14.4188 15.6983C14.8063 16.0223 15 16.4916 15 17.1061C15 17.7207 14.8063 18.1899 14.4188 18.514C14.0427 18.838 13.5698 19 13 19C12.4302 19 11.9516 18.838 11.5641 18.514C11.188 18.1899 11 17.7207 11 17.1061C11 16.4916 11.188 16.0223 11.5641 15.6983C11.9516 15.3743 12.4302 15.2123 13 15.2123C13.5698 15.2123 14.0427 15.3743 14.4188 15.6983Z" fill="#FF9842"/>
</svg>
