<svg width="49" height="48" viewBox="0 0 49 48" fill="none" xmlns="http://www.w3.org/2000/svg">
<path d="M26.8431 6H18.5C14.7288 6 12.8431 6 11.6716 7.17157C10.5 8.34315 10.5 10.2288 10.5 14V34C10.5 37.7712 10.5 39.6569 11.6716 40.8284C12.8431 42 14.7288 42 18.5 42H30.5C34.2712 42 36.1569 42 37.3284 40.8284C38.5 39.6569 38.5 37.7712 38.5 34V17.6569C38.5 16.8394 38.5 16.4306 38.3478 16.0631C38.1955 15.6955 37.9065 15.4065 37.3284 14.8284L29.6716 7.17157C29.0935 6.59351 28.8045 6.30448 28.4369 6.15224C28.0694 6 27.6606 6 26.8431 6Z" stroke="#005CA9" stroke-width="2"/>
<path d="M18.5 26L30.5 26" stroke="#005CA9" stroke-width="2" stroke-linecap="round"/>
<path d="M18.5 34L26.5 34" stroke="#005CA9" stroke-width="2" stroke-linecap="round"/>
<path d="M26.5 6V14C26.5 15.8856 26.5 16.8284 27.0858 17.4142C27.6716 18 28.6144 18 30.5 18H38.5" stroke="#005CA9" stroke-width="2"/>
</svg>
