<svg width="34" height="26" viewBox="0 0 34 26" fill="none" xmlns="http://www.w3.org/2000/svg">
<path d="M32.0688 12.8058L32.7581 13.5302L33.5194 12.8058L32.7581 12.0814L32.0688 12.8058ZM17.8375 11.8058C17.2852 11.8058 16.8375 12.2535 16.8375 12.8058C16.8375 13.3581 17.2852 13.8058 17.8375 13.8058V11.8058ZM26.4331 19.5491L32.7581 13.5302L31.3794 12.0814L25.0544 18.1003L26.4331 19.5491ZM32.7581 12.0814L26.4331 6.06253L25.0544 7.51136L31.3794 13.5302L32.7581 12.0814ZM32.0688 11.8058L17.8375 11.8058V13.8058L32.0688 13.8058V11.8058Z" fill="#95A5A6"/>
<path d="M19.975 17.4951V18.7569C19.975 20.4422 19.975 21.2848 19.4727 21.8524C18.9704 22.4199 18.1341 22.5224 16.4613 22.7273L7.72948 23.7968C4.59224 24.1811 3.02362 24.3732 2.01181 23.4778C1 22.5823 1 21.002 1 17.8413L1 8.15868C1 4.998 1 3.41765 2.01181 2.52222C3.02362 1.62678 4.59224 1.81891 7.72948 2.20319L16.4613 3.27274C18.1341 3.47763 18.9704 3.58008 19.4727 4.14764C19.975 4.7152 19.975 5.55782 19.975 7.24307V8.2749" stroke="#95A5A6" stroke-width="2"/>
</svg>
