<svg width="24" height="23" viewBox="0 0 24 23" fill="none" xmlns="http://www.w3.org/2000/svg">
<path fill-rule="evenodd" clip-rule="evenodd" d="M0.75 6.15039C0.75 3.32196 0.75 1.90775 1.62868 1.02907C2.50736 0.150391 3.92157 0.150391 6.75 0.150391H16.5931C17.4106 0.150391 17.8194 0.150391 18.1869 0.302632C18.5545 0.454872 18.8435 0.743903 19.4216 1.32196L22.0784 3.97882C22.6565 4.55688 22.9455 4.84591 23.0978 5.21345C23.25 5.58099 23.25 5.98974 23.25 6.80724V16.6504C23.25 19.4788 23.25 20.893 22.3713 21.7717C21.574 22.569 20.3357 22.6429 18 22.6497V18.1504L18 18.0888C18.0001 17.4347 18.0001 16.8469 17.9362 16.3712C17.8663 15.8519 17.7042 15.3191 17.2678 14.8826C16.8313 14.4462 16.2985 14.2841 15.7792 14.2142C15.3034 14.1503 14.7157 14.1503 14.0616 14.1504L14 14.1504H8.75L8.68839 14.1504C8.03427 14.1503 7.44655 14.1503 6.97084 14.2142C6.45149 14.2841 5.91867 14.4462 5.48223 14.8826C5.04579 15.3191 4.88366 15.8519 4.81383 16.3712C4.74988 16.8469 4.74993 17.4347 4.75 18.0888L4.75 18.1504V22.6331C3.19655 22.5863 2.26998 22.413 1.62868 21.7717C0.75 20.893 0.75 19.4788 0.75 16.6504V6.15039ZM16 18.1504V22.6504H6.75L6.75 18.1504C6.75 17.415 6.75212 16.9641 6.796 16.6377C6.83457 16.3509 6.88942 16.303 6.89592 16.2973L6.89645 16.2968L6.89692 16.2963C6.9026 16.2898 6.95049 16.235 7.23734 16.1964C7.56369 16.1525 8.01462 16.1504 8.75 16.1504H14C14.7354 16.1504 15.1863 16.1525 15.5127 16.1964C15.7995 16.235 15.8474 16.2898 15.8531 16.2963L15.8536 16.2968L15.8541 16.2973C15.8606 16.303 15.9154 16.3509 15.954 16.6377C15.9979 16.9641 16 17.415 16 18.1504ZM5.75 5.40039C5.19772 5.40039 4.75 5.84811 4.75 6.40039C4.75 6.95268 5.19772 7.40039 5.75 7.40039H12C12.5523 7.40039 13 6.95268 13 6.40039C13 5.84811 12.5523 5.40039 12 5.40039H5.75Z" fill="white"/>
</svg>
