<svg width="30" height="31" viewBox="0 0 30 31" fill="none" xmlns="http://www.w3.org/2000/svg">
<path fill-rule="evenodd" clip-rule="evenodd" d="M26.25 7.90039H3.75V11.6504C4.21466 11.6504 4.44698 11.6504 4.64018 11.6888C5.43356 11.8466 6.05376 12.4668 6.21157 13.2602C6.25 13.4534 6.25 13.6857 6.25 14.1504V20.6504C6.25 23.4788 6.25 24.893 7.12868 25.7717C8.00736 26.6504 9.42157 26.6504 12.25 26.6504H17.75C20.5784 26.6504 21.9926 26.6504 22.8713 25.7717C23.75 24.893 23.75 23.4788 23.75 20.6504V14.1504C23.75 13.6857 23.75 13.4534 23.7884 13.2602C23.9462 12.4668 24.5664 11.8466 25.3598 11.6888C25.553 11.6504 25.7853 11.6504 26.25 11.6504V7.90039ZM12.875 14.1504C12.875 13.5981 12.4273 13.1504 11.875 13.1504C11.3227 13.1504 10.875 13.5981 10.875 14.1504V20.4004C10.875 20.9527 11.3227 21.4004 11.875 21.4004C12.4273 21.4004 12.875 20.9527 12.875 20.4004V14.1504ZM19.125 14.1504C19.125 13.5981 18.6773 13.1504 18.125 13.1504C17.5727 13.1504 17.125 13.5981 17.125 14.1504V20.4004C17.125 20.9527 17.5727 21.4004 18.125 21.4004C18.6773 21.4004 19.125 20.9527 19.125 20.4004V14.1504Z" fill="white"/>
<path d="M12.5852 4.61363C12.7276 4.48073 13.0415 4.3633 13.4781 4.27954C13.9147 4.19579 14.4497 4.15039 15 4.15039C15.5503 4.15039 16.0853 4.19579 16.5219 4.27954C16.9585 4.3633 17.2724 4.48073 17.4148 4.61363" stroke="white" stroke-width="2" stroke-linecap="round"/>
</svg>
